<svg width="1354" height="960" viewBox="0 0 1354 960" fill="none" xmlns="http://www.w3.org/2000/svg">
<path d="M661 681L661 740.815L936 780.477L936 815.775L936 1084" stroke="white" stroke-width="1.73"/>
<path d="M650.005 682.5L650.005 752.696L923.005 791.914L923.005 826.815L923.005 1084" stroke="white" stroke-width="1.73"/>
<path d="M638.005 682L638.005 762.904L911.005 802.568L911.005 837.867L911.005 1084" stroke="white" stroke-width="1.73"/>
<path d="M1281.31 576.215L1281.31 511.92L1354 479.292L1354 544.067L1281.31 576.215Z" fill="white"/>
<path d="M1281.17 646.215L1281.17 582.227L1354 549.755L1354 614.221L1281.17 646.215Z" fill="white"/>
<path d="M1281.31 436.151L1281.31 371.856L1354 339.229L1354 404.003L1281.31 436.151Z" fill="white"/>
<path d="M1281.17 506.241L1281.17 442.252L1354 409.78L1354 474.246L1281.17 506.241Z" fill="white"/>
<path d="M1281.31 296.086L1281.31 231.791L1354 199.164L1354 263.939L1281.31 296.086Z" fill="white"/>
<path d="M1281.17 366.266L1281.17 302.277L1354 269.805L1354 334.271L1281.17 366.266Z" fill="white"/>
<path d="M386.087 20.2778L427.508 70.4217L377.659 70.4216L334.825 20.2777L386.087 20.2778Z" fill="white"/>
<path d="M386.087 20.2778L427.508 70.4217L377.659 70.4216L334.825 20.2777L386.087 20.2778Z" fill="white"/>
<path d="M442.269 20.2778L483.689 70.4217L433.84 70.4216L391.007 20.2777L442.269 20.2778Z" fill="white"/>
<path d="M442.269 20.2778L483.689 70.4217L433.84 70.4216L391.007 20.2777L442.269 20.2778Z" fill="white"/>
<path d="M515.523 41.7431L539.201 70.3992L489.352 70.3992L465.431 41.7429L515.523 41.7431Z" fill="white"/>
<path d="M515.523 41.7431L539.201 70.3992L489.352 70.3992L465.431 41.7429L515.523 41.7431Z" fill="white"/>
<path d="M571.6 41.7426L595.278 70.3987L545.429 70.3987L521.508 41.7425L571.6 41.7426Z" fill="white"/>
<path d="M571.6 41.7426L595.278 70.3987L545.429 70.3987L521.508 41.7425L571.6 41.7426Z" fill="white"/>
<path d="M627.686 41.7431L651.364 70.3992L601.515 70.3992L577.594 41.7429L627.686 41.7431Z" fill="white"/>
<path d="M627.686 41.7431L651.364 70.3992L601.515 70.3992L577.594 41.7429L627.686 41.7431Z" fill="white"/>
<path d="M683.763 41.7421L707.441 70.3982L657.592 70.3982L633.671 41.742L683.763 41.7421Z" fill="white"/>
<path d="M683.763 41.7421L707.441 70.3982L657.592 70.3982L633.671 41.742L683.763 41.7421Z" fill="white"/>
<path d="M739.849 41.7421L763.527 70.3982L713.678 70.3982L689.757 41.742L739.849 41.7421Z" fill="white"/>
<path d="M739.849 41.7421L763.527 70.3982L713.678 70.3982L689.757 41.742L739.849 41.7421Z" fill="white"/>
<path d="M464.98 680.466L464.98 784.223L346.152 894.356L52.2705 894.356" stroke="white" stroke-width="5.79648"/>
<rect x="77.1934" y="880.736" width="43.4736" height="43.4736" fill="#1D1D1B"/>
<rect x="155.448" y="880.736" width="43.4736" height="43.4736" fill="#1D1D1B"/>
<rect x="233.701" y="880.734" width="43.4736" height="43.4736" fill="#1D1D1B"/>
<rect x="13.4328" y="800.744" width="60.863" height="60.8631" fill="#1D1D1B" stroke="white" stroke-width="4.63718"/>
<rect x="27.9209" y="787.413" width="31.8806" height="22.0266" fill="#1D1D1B"/>
<rect x="59.8037" y="847.117" width="31.8807" height="22.0266" transform="rotate(-90 59.8037 847.117)" fill="#1D1D1B"/>
<rect x="59.8037" y="871.462" width="31.8806" height="22.0266" transform="rotate(180 59.8037 871.462)" fill="#1D1D1B"/>
<rect x="25.0195" y="815.236" width="31.8807" height="22.0266" transform="rotate(90 25.0195 815.236)" fill="#1D1D1B"/>
<path d="M48.5587 834.831L39.2623 834.831L37.7129 810.787L49.9933 810.787L48.5587 834.831ZM48.157 847.915C46.971 849.101 45.5555 849.694 43.9105 849.694C42.2655 849.694 40.8308 849.101 39.6066 847.915C38.4206 846.691 37.8277 845.256 37.8277 843.611C37.8277 841.928 38.4206 840.493 39.6066 839.308C40.8308 838.083 42.2655 837.471 43.9105 837.471C45.5555 837.471 46.971 838.083 48.157 839.308C49.3812 840.493 49.9933 841.928 49.9933 843.611C49.9933 845.256 49.3812 846.691 48.157 847.915Z" fill="white"/>
<path d="M67.5171 79.6824L67.5171 294.416L67.5171 351.617L67.5171 340.893L67.5171 448.353L67.5171 512.829L67.5171 574.973L67.5171 637.117L67.5171 716.176L85.1283 716.176L85.1283 637.117L548.14 637.117L143.556 637.117L169.463 680.634L509.289 680.634L548.14 637.117L143.556 637.117L801.693 637.117L1226.67 637.117L1266.42 637.117L1266.42 187.67L1127.62 79.6824L371.649 79.6824L67.5171 79.6824Z" fill="#1D1D1B"/>
<path d="M67.5171 79.6824L67.5171 294.416L67.5171 351.617L67.5171 340.893M67.5171 79.6824L371.649 79.6824M67.5171 79.6824L67.5171 170.059L23.9448 170.059M67.5171 79.6824L55.3624 69.763L16.2278 69.763M143.556 637.117L169.463 680.634L509.289 680.634L548.14 637.117M143.556 637.117L548.14 637.117M143.556 637.117L801.693 637.117M371.649 79.6824L357.3 67.0044L75.7579 67.0044L67.5171 59.8436L67.5171 48.271L16.2278 48.271M371.649 79.6824L1127.62 79.6824L1266.42 187.67L1266.42 637.117L1226.67 637.117M371.649 79.6824L225.851 225.718L67.5171 225.718L67.5171 280.826L23.9448 280.826M16.2278 48.271L16.2278 69.763M16.2278 48.271L4.65257 51.5775L4.65257 65.3544L16.2278 69.763M67.5171 448.353L67.5171 340.893M67.5171 448.353L23.9448 448.353M67.5171 448.353L67.5171 512.829M548.14 637.117L85.1283 637.117L85.1283 716.176L67.5171 716.176L67.5171 637.117L67.5171 574.973M23.9448 170.059L23.9448 274.213L23.9448 280.826M23.9448 170.059L2.99902 186.591L2.99902 271.457L23.9448 280.826M67.5171 340.893L23.9448 340.893M23.9448 340.893L23.9448 448.353M23.9448 340.893L2.99902 354.119L2.99902 437.883L23.9448 448.353M67.5171 512.829L37.7249 512.829L37.7249 569.039L37.7249 574.55L67.5171 574.973M67.5171 512.829L67.5171 574.973M801.693 637.117L843.585 680.634L1185.33 680.634L1226.67 637.117M801.693 637.117L1226.67 637.117" stroke="#FFFEFE" stroke-width="5.90989"/>
<path d="M1240.04 277.67L1263.55 258.781L1263.55 526.125L1240.04 500.94L1240.04 277.67Z" fill="white"/>
<path d="M1265.94 188.231L1185.06 126.974L1124.37 80.3752L981.945 80.3752L981.945 117.76L1092.48 228.713L1265.94 228.713L1265.94 188.231Z" stroke="white" stroke-width="5.90989"/>
<path d="M85.125 545.899L85.125 636.827L363.999 636.827L363.999 585.741L242.671 464.891L85.125 464.891L85.125 545.899Z" stroke="white" stroke-width="5.90989"/>
<rect x="84.6357" y="593.387" width="279.361" height="6.1174" fill="white"/>
<rect x="84.6357" y="606.642" width="279.361" height="6.1174" fill="white"/>
<rect x="84.6357" y="619.897" width="279.361" height="6.1174" fill="white"/>
<rect x="84.6357" y="554.644" width="250.813" height="6.1174" fill="white"/>
<rect x="84.6357" y="567.899" width="264.068" height="6.1174" fill="white"/>
<path d="M997.646 559.135L1018.01 509.324L1031.22 559.326L1044.44 609.328L1079.1 525.417L1096.86 589.787L1139.75 483.652L1161.84 598.6L1195.64 521.202L1214.27 582.507L1232.03 547.257" stroke="#11DF0D" stroke-width="2.95494"/>
<path d="M994.614 561.808L994.614 625.803L1245.03 625.803L1245.03 559.6L1226.87 539.318L1226.75 457.213L1031.54 457.213L994.614 508.557L994.614 561.808Z" stroke="white" stroke-width="3.54593"/>
<path d="M997.211 556.835L1239.4 556.835L1242.43 560.283L1242.43 561.433L997.211 561.433L997.211 556.835Z" fill="#11DF0D"/>
<rect x="84.6357" y="580.134" width="276.302" height="6.1174" fill="white"/>
<path d="M84.6357 541.39L322.195 541.39L322.195 547.508L84.6357 547.508L84.6357 541.39Z" fill="white"/>
<path d="M84.6357 475.119L254.903 475.119L254.903 481.236L84.6357 481.236L84.6357 475.119Z" fill="white"/>
<path d="M70.3584 89.7212L357.876 89.7212L357.876 95.8386L70.3584 95.8386L70.3584 89.7212Z" fill="white"/>
<path d="M70.3584 102.976L344.622 102.976L344.622 109.093L70.3584 109.093L70.3584 102.976Z" fill="white"/>
<path d="M70.3584 116.23L331.367 116.23L331.367 122.348L70.3584 122.348L70.3584 116.23Z" fill="white"/>
<path d="M70.3584 129.484L318.113 129.484L318.113 135.602L70.3584 135.602L70.3584 129.484Z" fill="white"/>
<path d="M70.3584 142.739L304.859 142.739L304.859 148.856L70.3584 148.856L70.3584 142.739Z" fill="white"/>
<path d="M70.3584 155.994L291.604 155.994L291.604 162.111L70.3584 162.111L70.3584 155.994Z" fill="white"/>
<path d="M70.3584 169.248L278.35 169.248L278.35 175.365L70.3584 175.365L70.3584 169.248Z" fill="white"/>
<path d="M70.3584 182.502L265.096 182.502L265.096 188.619L70.3584 188.619L70.3584 182.502Z" fill="white"/>
<path d="M70.3584 195.756L251.841 195.756L251.841 201.874L70.3584 201.874L70.3584 195.756Z" fill="white"/>
<path d="M70.3584 209.011L238.587 209.011L238.587 215.128L70.3584 215.128L70.3584 209.011Z" fill="white"/>
<path d="M83.6162 488.372L269.177 488.372L269.177 494.489L83.6162 494.489L83.6162 488.372Z" fill="white"/>
<path d="M83.6162 501.626L283.451 501.626L283.451 507.744L83.6162 507.744L83.6162 501.626Z" fill="white"/>
<path d="M83.6162 514.881L295.686 514.881L295.686 520.998L83.6162 520.998L83.6162 514.881Z" fill="white"/>
<path d="M83.6162 528.135L308.94 528.135L308.94 534.253L83.6162 534.253L83.6162 528.135Z" fill="white"/>
<path d="M1042.01 175.366L1252.35 175.366L1257.14 181.483L1042.01 181.483L1042.01 175.366Z" fill="white"/>
<rect x="1055.26" y="187.6" width="211.05" height="6.11739" fill="white"/>
<rect x="1067.5" y="200.855" width="198.815" height="6.11739" fill="white"/>
<rect x="1080.75" y="214.108" width="185.561" height="6.11739" fill="white"/>
<path d="M594.99 126.525L594.99 80.2344L699.719 80.2344L699.719 130.933L646.252 151.323L594.99 126.525Z" stroke="white" stroke-width="5.90989"/>
<path d="M701.371 591.088L701.371 637.379L596.642 637.379L596.642 586.68L650.109 566.29L701.371 591.088Z" stroke="white" stroke-width="5.90989"/>
<path d="M1017.54 149.876L1220.45 149.876L1228.59 155.994L1020.73 155.994L1017.54 149.876Z" fill="white"/>
<path d="M1029.78 162.11L1236.91 162.11L1241.85 167.718L1031.81 168.228L1029.78 162.11Z" fill="white"/>
<path d="M1001.45 137.702L1198.3 137.702L1205.34 143.82L1004.96 143.82L1001.45 137.702Z" fill="white"/>
<path d="M981.673 112.879L1167.81 112.879L1172.83 118.996L983.716 118.996L981.673 112.879Z" fill="white"/>
<path d="M991.396 125.292L1185.24 125.292L1188.79 131.409L993.439 131.409L991.396 125.292Z" fill="white"/>
<path d="M981.945 100.467L1151.09 100.467L1156.29 106.584L981.945 106.584L981.945 100.467Z" fill="white"/>
<path d="M981.945 88.0596L1134.85 88.0596L1140.63 94.177L981.945 94.177L981.945 88.0596Z" fill="white"/>
<path d="M303.397 465.43L303.397 234.086L352.27 184.943L585.241 184.943L634.12 233.479L634.12 465.43L585.241 515.59L353.289 515.59L303.397 465.43Z" fill="#1D1D1B" stroke="white" stroke-width="5.91348"/>
<path d="M340.547 193.716L596.458 193.716L596.458 199.833L340.547 199.833L340.547 193.716Z" fill="white"/>
<path d="M340.547 500.605L596.458 500.605L596.458 506.722L340.547 506.722L340.547 500.605Z" fill="white"/>
<path d="M327.294 487.351L609.714 487.351L609.714 493.468L327.294 493.468L327.294 487.351Z" fill="white"/>
<path d="M315.055 474.097L621.944 474.097L621.944 480.215L315.055 480.215L315.055 474.097Z" fill="white"/>
<path d="M327.294 205.951L608.694 205.951L608.694 212.068L327.294 212.068L327.294 205.951Z" fill="white"/>
<path d="M315.055 219.206L621.944 219.206L621.944 225.323L315.055 225.323L315.055 219.206Z" fill="white"/>
<path d="M660.694 465.429L660.694 234.085L709.567 184.942L942.538 184.942L991.417 233.478L991.417 465.429L942.538 515.589L710.586 515.589L660.694 465.429Z" fill="#1D1D1B" stroke="white" stroke-width="5.91348"/>
<path d="M697.844 193.715L953.755 193.715L953.755 199.832L697.844 199.832L697.844 193.715Z" fill="white"/>
<path d="M697.844 500.605L953.755 500.605L953.755 506.722L697.844 506.722L697.844 500.605Z" fill="white"/>
<path d="M684.585 487.351L967.005 487.351L967.005 493.468L684.585 493.468L684.585 487.351Z" fill="white"/>
<path d="M672.352 474.097L979.241 474.097L979.241 480.215L672.352 480.215L672.352 474.097Z" fill="white"/>
<path d="M684.585 205.951L965.985 205.951L965.985 212.068L684.585 212.068L684.585 205.951Z" fill="white"/>
<path d="M672.352 219.205L979.241 219.205L979.241 225.322L672.352 225.322L672.352 219.205Z" fill="white"/>
<rect x="97.8887" y="219.851" width="21.8666" height="13.5927" fill="#1D1D1B"/>
<rect x="141.033" y="219.851" width="21.8666" height="13.5927" fill="#1D1D1B"/>
<rect x="184.176" y="219.85" width="21.8666" height="13.5927" fill="#1D1D1B"/>
<path d="M681.492 680.994L688.974 637.001L609.998 637.001L618.312 680.994L681.492 680.994Z" stroke="white" stroke-width="5.30036"/>
</svg>
