<svg width="1203" height="1024" viewBox="0 0 1203 1024" fill="none" xmlns="http://www.w3.org/2000/svg">
<path d="M476.314 283.336L2.99815 283.336L2.99814 586.525L2.99804 689.346L42.7284 726.976L144.58 726.37L192.711 726.976L275.151 726.976L314.916 726.976L580.105 726.976L638.704 676.14L1066.78 676.14L1066.78 369.162L943.621 283.336L541.369 283.336L476.314 283.336Z" fill="#1D1D1B"/>
<path d="M476.314 283.336L2.99815 283.336L2.99814 586.525L2.99804 689.346L42.7284 726.976L144.58 726.37L192.711 726.976L275.151 726.976L314.916 726.976L580.105 726.976L638.704 676.14L1066.78 676.14L1066.78 369.162L943.621 283.336L541.369 283.336L476.314 283.336Z" stroke="#FFFEFE" stroke-width="5.30036"/>
<path d="M863.243 585.985L36.918 585.985L36.918 448.957L36.918 349.059L276.097 349.059L863.243 349.059M863.243 585.985L944.339 483.375L944.339 349.059L863.243 349.059M863.243 585.985L844.692 585.985L844.692 458.768L863.243 421.56L863.243 349.059" stroke="white" stroke-width="5.30036"/>
<rect x="89.9268" y="342.699" width="53.0035" height="39.7527" fill="#1D1D1B"/>
<rect x="182.679" y="342.699" width="53.0035" height="39.7527" fill="#1D1D1B"/>
<rect x="275.439" y="342.699" width="53.0035" height="39.7527" fill="#1D1D1B"/>
<rect x="368.191" y="342.7" width="53.0035" height="39.7527" fill="#1D1D1B"/>
<path d="M847.999 -2.00073L847.999 239" stroke="white" stroke-width="1.73"/>
<path d="M835.999 -2.00073L835.999 239" stroke="white" stroke-width="1.73"/>
<path d="M860.999 -0.000244141L860.999 241" stroke="white" stroke-width="1.73"/>
<path d="M1019.79 593.752C1019.79 613.658 1003.66 629.795 983.752 629.795C963.846 629.795 947.709 613.658 947.709 593.752C947.709 573.847 963.846 557.71 983.752 557.71C1003.66 557.71 1019.79 573.847 1019.79 593.752Z" fill="#11DF0D" stroke="white" stroke-width="7.4205"/>
<path d="M19.4326 238.785L43.3119 200.012C56.5197 178.567 85.9476 174.366 104.629 191.258L119.329 204.55C132.191 216.181 151.053 218.275 166.153 209.749L201.203 189.958C214.763 182.301 231.52 183.146 244.241 192.126L299.699 231.276C314.447 241.688 334.322 241.016 348.333 229.632L399.854 187.77C412.726 177.312 430.693 175.811 445.121 183.991L517.91 225.253C530.906 232.621 546.913 232.191 559.495 224.135L619.97 185.419C634.064 176.395 652.269 177.026 665.705 187.003L680.685 198.127C689.47 204.65 700.53 207.319 711.323 205.52L723.055 203.565" stroke="#11DF0D" stroke-width="11.1307"/>
<path d="M2.99805 212.041L2.99805 119.554L691.762 119.554L723.846 176.29L723.846 269.554L38.1866 269.554L2.99805 212.041Z" stroke="white" stroke-width="5.30036"/>
<rect x="221.673" y="121.115" width="6.61042" height="37.4364" fill="white"/>
<rect x="49.8027" y="231.863" width="6.61042" height="37.4364" fill="white"/>
<rect x="393.543" y="231.864" width="6.61042" height="37.4364" fill="white"/>
<rect x="565.415" y="119.554" width="6.61042" height="37.4364" fill="white"/>
<path d="M816.135 239.343L808.653 283.336L887.629 283.336L879.315 239.343L816.135 239.343Z" stroke="white" stroke-width="5.30036"/>
<path d="M472.021 772.029L479.503 728.036L400.528 728.036L408.841 772.029L472.021 772.029Z" stroke="white" stroke-width="5.30036"/>
<path d="M1083.64 742.347L1077.91 752.418L1138.34 752.418L1131.97 742.347L1083.64 742.347Z" stroke="white" stroke-width="2.65018"/>
<path d="M772.128 765.883L772.128 765.883L784.849 751.622L1177.26 751.622L1189.15 765.395L1201.14 779.289L1201.14 885.792L1190.28 898.266L1177.3 912.223L784.837 912.223L772.115 898.258L772.1 898.241L772.084 898.225L760.153 885.742L760.153 779.306L772.128 765.883Z" fill="#1D1D1B" stroke="white" stroke-width="3.71025"/>
<path d="M792.799 898.441L772.347 876.6L772.347 788.253L792.824 765.402L1169.26 765.402L1188.96 788.679L1188.96 876.621L1169.29 898.441L792.799 898.441Z" fill="#1D1D1B" stroke="white" stroke-width="3.71025"/>
<path d="M878.353 781.834L878.353 882.011L822.699 882.011L822.699 793.751L827.512 787.993L833.426 781.834L878.353 781.834Z" fill="#1D1D1B" stroke="white" stroke-width="3.71025"/>
<path d="M840.983 795.35C840.983 793.301 842.645 791.639 844.694 791.639L866.425 791.639C868.474 791.639 870.135 793.301 870.135 795.35L870.135 803.83C870.135 805.879 868.474 807.54 866.425 807.54L843.634 807.54C842.17 807.54 840.983 806.354 840.983 804.89L840.983 795.35Z" fill="#11DF0D"/>
<path d="M840.983 795.35C840.983 793.301 842.645 791.639 844.694 791.639L866.425 791.639C868.474 791.639 870.135 793.301 870.135 795.35L870.135 803.83C870.135 805.879 868.474 807.54 866.425 807.54L843.634 807.54C842.17 807.54 840.983 806.354 840.983 804.89L840.983 795.35Z" fill="#11DF0D"/>
<rect x="830.915" y="813.371" width="39.2226" height="15.371" rx="3.71025" fill="#11DF0D"/>
<rect x="830.915" y="813.371" width="39.2226" height="15.371" rx="3.71025" fill="#11DF0D"/>
<rect x="830.914" y="835.633" width="39.2226" height="14.841" rx="3.71025" fill="#11DF0D"/>
<rect x="830.914" y="835.633" width="39.2226" height="14.841" rx="3.71025" fill="#11DF0D"/>
<rect x="830.914" y="857.364" width="39.2226" height="14.841" rx="3.71025" fill="#11DF0D"/>
<rect x="830.914" y="857.364" width="39.2226" height="14.841" rx="3.71025" fill="#11DF0D"/>
<path d="M1065.45 497.205L1151.58 541.082L1151.58 679.258L1106 710.459L1106 742.346" stroke="white" stroke-width="1.59011"/>
<rect x="103.176" y="720.614" width="66.7845" height="25.9718" fill="#1D1D1B"/>
<rect x="225.612" y="720.615" width="66.2544" height="25.9718" fill="#1D1D1B"/>
<path d="M425.999 772L425.999 831.762L607.999 851.843L607.999 1075" stroke="white" stroke-width="1.73"/>
<path d="M439.999 772L439.999 824.244L621.999 844.288L621.999 1075" stroke="white" stroke-width="1.73"/>
<path d="M455 772L455 816.497L638 836.628L638 1075" stroke="white" stroke-width="1.73"/>
<rect x="46.4627" y="621.498" width="67.3145" height="64.1343" fill="#11DF0D" stroke="white" stroke-width="5.30036"/>
<rect x="139.219" y="621.499" width="67.3145" height="64.1343" fill="#11DF0D" stroke="white" stroke-width="5.30036"/>
<rect x="228.263" y="621.499" width="67.3145" height="64.1343" fill="#1D1D1B" stroke="white" stroke-width="5.30036"/>
<rect x="862.717" y="364.431" width="81.6255" height="5.8304" fill="white"/>
<rect x="862.717" y="353.3" width="81.6255" height="5.8304" fill="white"/>
<rect x="862.717" y="375.562" width="81.6255" height="5.8304" fill="white"/>
<rect x="862.717" y="386.692" width="81.6255" height="5.8304" fill="white"/>
<rect x="862.717" y="397.824" width="81.6255" height="5.8304" fill="white"/>
<rect x="862.717" y="408.955" width="81.6255" height="5.8304" fill="white"/>
<rect x="862.717" y="420.084" width="81.6255" height="5.8304" fill="white"/>
<rect x="860.597" y="431.215" width="83.7456" height="5.8304" fill="white"/>
<rect x="854.763" y="442.346" width="89.576" height="5.8304" fill="white"/>
<rect x="849.468" y="453.477" width="94.8763" height="5.8304" fill="white"/>
<rect x="846.285" y="464.608" width="98.0566" height="5.8304" fill="white"/>
<rect x="846.285" y="475.738" width="98.0566" height="5.8304" fill="white"/>
<rect x="846.285" y="486.869" width="94.8763" height="5.8304" fill="white"/>
<rect x="846.285" y="497.999" width="85.3357" height="5.8304" fill="white"/>
<rect x="847.343" y="509.131" width="75.7951" height="5.8304" fill="white"/>
<rect x="847.343" y="520.261" width="65.7244" height="5.8304" fill="white"/>
<rect x="846.285" y="531.391" width="58.3039" height="5.8304" fill="white"/>
<rect x="847.343" y="542.523" width="48.7633" height="5.8304" fill="white"/>
<rect x="846.285" y="553.654" width="40.8127" height="5.8304" fill="white"/>
<rect x="846.285" y="564.784" width="31.2721" height="5.8304" fill="white"/>
<rect x="846.285" y="575.914" width="22.2615" height="5.83039" fill="white"/>
</svg>
