<svg width="1200" height="1024" viewBox="0 0 1200 1024" fill="none" xmlns="http://www.w3.org/2000/svg">
<path d="M397.297 688.139L178.651 736.139L105.204 450.347L323.85 402.347L343.23 477.759L211.87 506.597L219.137 534.876L347.473 506.702L366.853 582.113L238.518 610.287L246.556 641.566L377.917 612.728L397.297 688.139Z" fill="white"/>
<path d="M928.708 732.653L798.077 685.081L866.388 474.579L992.654 520.561C1012.61 527.827 1026.11 538.861 1033.16 553.662C1040.21 568.463 1041.48 582.806 1036.97 596.692C1032.81 609.527 1026 619.046 1016.55 625.25C1007.17 631.244 996.906 633.506 985.763 632.035C996.648 637.882 1004.26 647.006 1008.6 659.409C1013.01 671.602 1013.03 684.431 1008.66 697.896C1003.54 713.676 993.873 725.212 979.654 732.502C965.435 739.793 948.453 739.843 928.708 732.653ZM952.807 592.861C956.133 594.072 959.418 593.975 962.663 592.569C965.977 590.952 968.214 588.356 969.374 584.779C970.535 581.202 970.21 577.908 968.398 574.895C966.655 571.673 964.121 569.456 960.796 568.245L912.16 550.533L904.171 575.15L952.807 592.861ZM928.767 673.388C933.339 675.053 937.248 675.183 940.493 673.777C944.015 672.236 946.424 669.467 947.721 665.469C948.95 661.682 948.623 658.034 946.741 654.526C944.926 650.806 941.837 648.152 937.472 646.563L886.966 628.17L878.26 654.995L928.767 673.388Z" fill="white"/>
<path d="M1147.65 192.653L147.88 192.653L99.998 236.524L99.998 681.502L147.88 737.907L1147.65 737.907L1196.73 681.502L1196.73 236.524L1147.65 192.653Z" stroke="white" stroke-width="5.52995"/>
<path d="M373.863 615.303C374.257 615.536 374.766 615.406 374.999 615.012L378.801 608.586C379.034 608.192 378.903 607.683 378.509 607.45C378.115 607.217 377.606 607.347 377.373 607.742L373.994 613.453L368.283 610.074C367.888 609.841 367.38 609.971 367.146 610.366C366.913 610.76 367.044 611.269 367.438 611.502L373.863 615.303ZM339.92 478.287C339.526 478.054 339.017 478.184 338.784 478.579L334.983 485.004C334.749 485.398 334.88 485.907 335.274 486.14C335.668 486.373 336.177 486.243 336.41 485.848L339.789 480.137L345.501 483.516C345.895 483.749 346.404 483.619 346.637 483.225C346.87 482.83 346.74 482.322 346.345 482.088L339.92 478.287ZM375.089 614.383L340.301 478.795L338.694 479.207L373.482 614.795L375.089 614.383Z" fill="white"/>
<path d="M326.73 403.316L687.836 311.991L687.836 307.123M326.73 403.316L342.68 378.928M326.73 403.316L354.433 415.51M687.836 237.999L687.836 307.123M687.836 307.123L687.836 345.556L865.071 472.506M865.071 472.506L865.071 453.981M865.071 472.506L848.481 474.165M1150.42 463.105L1100.92 463.105L1100.92 549.373L1056.41 595.271L1040.92 595.271M1040.92 595.271L1050.05 582.829M1040.92 595.271L1050.05 606.055" stroke="white" stroke-width="3.87097"/>
<path d="M356.589 532.413L465.08 532.413L465.08 537.446L465.08 573.812L537.142 604.635L537.142 692.009M356.589 532.413L368.478 516.985M356.589 532.413L370.967 548.506" stroke="white" stroke-width="3.87097"/>
<path d="M636.806 144.755L629 190.653H711.396L702.723 144.755H636.806Z" stroke="white" stroke-width="5.52995"/>
<path d="M500.43 691.455L492.624 737.354H575.02L566.347 691.455H500.43Z" stroke="white" stroke-width="5.52995"/>
<path d="M1150.69 493.179L1196.59 500.985L1196.59 418.589L1150.69 427.262L1150.69 493.179Z" stroke="white" stroke-width="5.52995"/>
<path d="M714.868 238.552L722.674 192.653L640.278 192.653L648.951 238.552L714.868 238.552Z" stroke="white" stroke-width="5.52995"/>
<path d="M719.589 783.898L727.395 738L644.998 738L653.672 783.898L719.589 783.898Z" stroke="white" stroke-width="5.52995"/>
<path d="M654.999 -48L654.999 144" stroke="white" stroke-width="1.73"/>
<path d="M668.997 -2V144.457" stroke="white" stroke-width="1.73"/>
<path d="M684.999 -47.9998V144" stroke="white" stroke-width="1.73"/>
<line x1="1059.11" y1="543.876" x2="1006.57" y2="674.383" stroke="white" stroke-width="1.65899"/>
<path d="M1036.15 631.564L992.44 738.019" stroke="white" stroke-width="1.65899"/>
<path d="M285.254 204.026H135.116L100.001 236.326V389.28H176.038L285.254 287.252V204.026ZM285.254 204.026V192.69" stroke="white" stroke-width="5.52995"/>
<rect x="100.001" y="374.902" width="87.9262" height="6.08296" fill="white"/>
<rect x="100.001" y="363.289" width="100.092" height="6.08296" fill="white"/>
<rect x="100.001" y="351.676" width="112.811" height="6.08296" fill="white"/>
<rect x="100.001" y="340.063" width="124.424" height="6.08296" fill="white"/>
<rect x="100.001" y="328.45" width="138.249" height="6.08296" fill="white"/>
<rect x="100.002" y="316.837" width="149.862" height="6.08296" fill="white"/>
<rect x="100.002" y="305.224" width="161.475" height="6.08296" fill="white"/>
<rect x="100.001" y="293.611" width="174.193" height="6.08296" fill="white"/>
<rect x="100.001" y="281.999" width="183.594" height="6.08296" fill="white"/>
<rect x="100.001" y="270.386" width="183.594" height="6.08296" fill="white"/>
<rect x="100.001" y="258.773" width="183.594" height="6.08296" fill="white"/>
<rect x="100.001" y="247.159" width="183.594" height="6.08296" fill="white"/>
<rect x="100.001" y="235.547" width="183.594" height="6.08296" fill="white"/>
<rect x="110.511" y="223.934" width="173.087" height="6.08296" fill="white"/>
<rect x="123.227" y="212.321" width="160.369" height="6.08296" fill="white"/>
<rect x="982.581" y="242.184" width="135.484" height="135.484" fill="#1D1D1B" stroke="white" stroke-width="5.52995"/>
<rect x="1022.95" y="215.64" width="55.2995" height="55.2996" fill="#1D1D1B"/>
<rect x="1084.33" y="337.298" width="55.2996" height="55.2995" transform="rotate(-90 1084.33 337.298)" fill="#1D1D1B"/>
<rect x="1078.25" y="397.575" width="55.2995" height="55.2996" transform="rotate(180 1078.25 397.575)" fill="#1D1D1B"/>
<rect x="1007.47" y="282" width="55.2996" height="55.2995" transform="rotate(90 1007.47 282)" fill="#1D1D1B"/>
<path d="M1061.15 318.595L1039.74 318.595L1036.17 263.218L1064.45 263.218L1061.15 318.595ZM1060.22 348.729C1057.49 351.46 1054.23 352.826 1050.44 352.826C1046.65 352.826 1043.35 351.46 1040.53 348.729C1037.8 345.909 1036.43 342.605 1036.43 338.817C1036.43 334.94 1037.8 331.636 1040.53 328.904C1043.35 326.085 1046.65 324.675 1050.44 324.675C1054.23 324.675 1057.49 326.085 1060.22 328.904C1063.04 331.636 1064.45 334.94 1064.45 338.817C1064.45 342.605 1063.04 345.909 1060.22 348.729Z" fill="white"/>
<path d="M697.999 785.001L697.999 847.236L604.999 868.147L604.999 1045" stroke="white" stroke-width="1.73"/>
<path d="M685.999 785.501L685.999 839.501L592.999 860.442L592.999 1044" stroke="white" stroke-width="1.73"/>
<path d="M674.997 785L674.997 831.501L580.997 852.655L580.997 1048" stroke="white" stroke-width="1.73"/>
</svg>
