<svg width="1106" height="1024" viewBox="0 0 1106 1024" fill="none" xmlns="http://www.w3.org/2000/svg">
<path d="M491.919 284.541L3.00098 284.541L3.00098 584.356L3.00098 697.879L95.9008 760.818L149.25 760.818L197.428 760.818L325.202 761.582L599.131 761.582L659.663 697.436L1101.85 697.436L1101.85 310.079L974.631 201.781L559.119 201.781L491.919 284.541Z" fill="#1D1D1B"/>
<path d="M491.919 284.541L3.00098 284.541L3.00098 584.356L3.00098 697.879L95.9008 760.818L149.25 760.818L197.428 760.818L325.202 761.582L599.131 761.582L659.663 697.436L1101.85 697.436L1101.85 310.079L974.631 201.781L559.119 201.781L491.919 284.541Z" stroke="#FFFEFE" stroke-width="5.7652"/>
<path d="M479.096 261.739L528.788 201.781L3.00099 201.781L3.00099 261.739L479.096 261.739Z" stroke="white" stroke-width="5.7652"/>
<path d="M37.0127 444.817L37.0127 328.616L305.982 328.616L1057.45 328.616L1057.45 484.853L74.9969 484.853L37.0127 444.817Z" stroke="white" stroke-width="5.7652"/>
<rect x="96.9707" y="314.203" width="43.239" height="43.239" fill="#1D1D1B"/>
<rect x="173.647" y="314.203" width="43.239" height="43.239" fill="#1D1D1B"/>
<rect x="250.326" y="314.203" width="43.239" height="43.239" fill="#1D1D1B"/>
<rect x="327.003" y="314.203" width="43.239" height="43.239" fill="#1D1D1B"/>
<path d="M931.774 201.782L1002.11 153.931" stroke="white" stroke-width="4.03564"/>
<path d="M1012.78 155.084C1012.78 160.912 1007.81 165.749 1001.53 165.749C995.261 165.749 990.292 160.912 990.292 155.084C990.292 149.256 995.261 144.418 1001.53 144.418C1007.81 144.418 1012.78 149.256 1012.78 155.084Z" fill="#1D1D1B" stroke="white" stroke-width="2.8826"/>
<path d="M117.727 555.765C117.727 575.32 101.011 591.509 79.9647 591.509C58.9188 591.509 42.2026 575.32 42.2026 555.765C42.2026 536.21 58.9188 520.021 79.9647 520.021C101.011 520.021 117.727 536.21 117.727 555.765Z" fill="#11DF0D" stroke="white" stroke-width="8.07128"/>
<rect x="661.387" y="746.593" width="110.115" height="104.35" fill="#1D1D1B" stroke="white" stroke-width="5.7652"/>
<rect x="693.667" y="724.685" width="46.1216" height="37.4738" fill="#1D1D1B"/>
<rect x="745.558" y="821.54" width="46.1216" height="38.6269" transform="rotate(-90 745.558 821.54)" fill="#1D1D1B"/>
<rect x="739.79" y="861.896" width="46.1216" height="36.8973" transform="rotate(180 739.79 861.896)" fill="#1D1D1B"/>
<rect x="683.868" y="775.419" width="46.1216" height="38.0503" transform="rotate(90 683.868 775.419)" fill="#1D1D1B"/>
<path d="M665.918 718.343L618.722 769.948L618.722 871.697L665.918 871.697L725.94 871.697L782.884 871.697L839.827 797.211L1103 797.211L1103 718.343L665.918 718.343Z" stroke="white" stroke-width="5.7652"/>
<path d="M721.403 802.05L712.156 802.05L710.615 778.135L722.829 778.135L721.403 802.05ZM721.003 815.063C719.823 816.243 718.416 816.833 716.779 816.833C715.143 816.833 713.716 816.243 712.499 815.063C711.319 813.846 710.729 812.419 710.729 810.783C710.729 809.108 711.319 807.682 712.499 806.502C713.716 805.284 715.143 804.676 716.779 804.676C718.416 804.676 719.823 805.284 721.003 806.502C722.221 807.682 722.829 809.108 722.829 810.783C722.829 812.419 722.221 813.846 721.003 815.063Z" fill="white"/>
<path d="M102.737 584.068L136.041 640.377H198.624M198.624 640.377L282.05 566.142H291.259M198.624 640.377H282.05H291.259M198.624 640.377L282.05 717.767H291.259" stroke="white" stroke-width="5.7652"/>
<path d="M283.766 566.142L301.926 556.656V575.628L283.766 566.142Z" fill="white"/>
<path d="M283.765 640.513L301.925 631.027V650L283.765 640.513Z" fill="white"/>
<path d="M283.765 717.767L301.925 708.281V727.253L283.765 717.767Z" fill="white"/>
<rect x="3.00098" y="210.43" width="515.409" height="6.34173" fill="white"/>
<rect x="3.00098" y="222.536" width="506.185" height="6.34173" fill="white"/>
<rect x="3.00098" y="234.643" width="496.384" height="6.34173" fill="white"/>
<rect x="3.00098" y="246.75" width="487.16" height="6.34173" fill="white"/>
<path d="M1057.45 639.072H659.942V577.961L700.875 538.757H1057.45V639.072Z" stroke="white" stroke-width="5.7652"/>
<rect x="722.497" y="564.989" width="34.0147" height="47.2746" fill="white"/>
<rect x="766.886" y="564.989" width="34.0147" height="47.2746" fill="white"/>
<rect x="811.282" y="564.989" width="34.0147" height="47.2746" fill="white"/>
<rect x="855.672" y="564.989" width="34.0147" height="47.2746" fill="#A4A3A3"/>
<rect x="900.065" y="564.989" width="34.0147" height="47.2746" fill="#A4A3A3"/>
<rect x="944.454" y="564.989" width="34.0147" height="47.2746" fill="#4E4E4E"/>
<rect x="988.851" y="564.989" width="34.0147" height="47.2746" fill="#4E4E4E"/>
<path d="M716.221 153.931L708.083 201.782H793.985L784.942 153.931H716.221Z" stroke="white" stroke-width="5.7652"/>
<path d="M554.661 809.433L562.799 761.582L476.897 761.582L485.94 809.433L554.661 809.433Z" stroke="white" stroke-width="5.7652"/>
<path d="M483.998 0L483.998 48.8892L738.998 65.3166L738.998 154" stroke="white" stroke-width="1.72956"/>
<path d="M495.999 0L495.999 40.3206L750.999 55.6946L750.999 152" stroke="white" stroke-width="1.72956"/>
<path d="M508 0L508 32.6607L762.822 48.4276L762.822 153.354" stroke="white" stroke-width="1.72956"/>
<path d="M507.999 809.999V1024.57" stroke="white" stroke-width="1.72956"/>
<path d="M520.137 809.433L519.991 1024" stroke="white" stroke-width="1.72956"/>
<path d="M531.668 809.433L532.004 1024" stroke="white" stroke-width="1.72956"/>
</svg>
