<svg width="1036" height="1024" viewBox="0 0 1036 1024" fill="none" xmlns="http://www.w3.org/2000/svg">
<path d="M552 0L552 47.5729L795 63.5578L795 126" stroke="white" stroke-width="1.73"/>
<path d="M191.521 174.214L191.521 396.727L321.064 526.388L420.498 526.388L420.498 606.398L420.498 692.667L420.498 808.531L929.547 808.531L1033 683.078L1033 174.213L191.521 174.214Z" stroke="white" stroke-width="5.58378"/>
<path d="M207.156 201.575L207.156 332.514L207.156 391.702L325.039 508.962L532.653 508.962L615.933 432.464L747.012 432.464L1011.22 432.464L1011.22 207.717L207.156 201.575Z" stroke="white" stroke-width="5.58378"/>
<rect x="279.669" y="188.853" width="42.4123" height="69.4268" fill="#1D1D1B"/>
<rect x="361.84" y="182.816" width="42.4123" height="69.4268" fill="#1D1D1B"/>
<rect x="444.017" y="182.816" width="42.4123" height="69.4268" fill="#1D1D1B"/>
<rect x="526.191" y="182.816" width="42.4123" height="69.4268" fill="#1D1D1B"/>
<rect x="551.678" y="836.984" width="42.4123" height="69.4269" transform="rotate(-90 551.678 836.984)" fill="#1D1D1B"/>
<rect x="687.361" y="836.984" width="42.4123" height="69.4269" transform="rotate(-90 687.361 836.984)" fill="#1D1D1B"/>
<rect x="823.048" y="836.984" width="42.4123" height="69.4269" transform="rotate(-90 823.048 836.984)" fill="#1D1D1B"/>
<path d="M593.037 565.017L584.274 565.017L581.045 556.583L560.883 556.583L557.655 565.017L548.892 565.017L566.154 521.07L575.774 521.07L593.037 565.017ZM578.871 549.797L570.964 528.844L563.058 549.797L578.871 549.797ZM636.964 565.017L614.76 565.017L614.76 521.07L636.371 521.07C640.281 521.07 643.333 522.146 645.53 524.298C647.77 526.407 648.89 529.064 648.89 532.271C648.89 534.906 648.143 537.146 646.65 538.991C645.2 540.792 643.399 541.912 641.247 542.352C643.619 542.703 645.618 543.933 647.243 546.041C648.912 548.106 649.747 550.478 649.747 553.157C649.747 556.671 648.605 559.527 646.32 561.723C644.08 563.919 640.961 565.017 636.964 565.017ZM634.79 539.255C636.723 539.255 638.238 538.728 639.336 537.673C640.434 536.619 640.983 535.258 640.983 533.588C640.983 531.875 640.434 530.492 639.336 529.437C638.238 528.383 636.723 527.856 634.79 527.856L622.469 527.856L622.469 539.255L634.79 539.255ZM635.119 558.231C637.228 558.231 638.875 557.704 640.061 556.649C641.247 555.551 641.84 554.036 641.84 552.103C641.84 550.39 641.247 548.962 640.061 547.82C638.875 546.634 637.228 546.041 635.119 546.041L622.469 546.041L622.469 558.231L635.119 558.231ZM695.491 565.808C688.902 565.808 683.412 563.699 679.019 559.483C674.627 555.222 672.43 549.753 672.43 543.076C672.43 536.4 674.627 530.953 679.019 526.736C683.412 522.475 688.902 520.345 695.491 520.345C703.134 520.345 709.02 523.639 713.149 530.228L706.561 533.588C705.462 531.7 703.903 530.162 701.882 528.976C699.906 527.79 697.775 527.197 695.491 527.197C691.143 527.197 687.519 528.691 684.62 531.678C681.764 534.665 680.337 538.464 680.337 543.076C680.337 547.689 681.764 551.488 684.62 554.475C687.519 557.462 691.143 558.955 695.491 558.955C697.819 558.955 699.972 558.362 701.948 557.176C703.925 555.99 705.462 554.453 706.561 552.564L713.149 555.925C708.933 562.513 703.047 565.808 695.491 565.808ZM752.582 565.017L736.242 565.017L736.242 521.07L752.582 521.07C759.391 521.07 764.925 523.112 769.186 527.197C773.447 531.282 775.577 536.575 775.577 543.076C775.577 549.533 773.447 554.805 769.186 558.89C764.969 562.975 759.435 565.017 752.582 565.017ZM752.582 558.231C757.194 558.231 760.862 556.781 763.586 553.882C766.309 550.983 767.671 547.381 767.671 543.076C767.671 538.64 766.331 534.994 763.652 532.139C761.016 529.284 757.326 527.856 752.582 527.856L743.951 527.856L743.951 558.231L752.582 558.231ZM830.054 565.017L799.943 565.017L799.943 521.07L830.054 521.07L830.054 527.856L807.652 527.856L807.652 539.255L829.593 539.255L829.593 546.041L807.652 546.041L807.652 558.231L830.054 558.231L830.054 565.017ZM862.602 565.017L854.893 565.017L854.893 521.07L885.004 521.07L885.004 527.856L862.602 527.856L862.602 539.255L884.543 539.255L884.543 546.041L862.602 546.041L862.602 565.017ZM929.898 565.874C923.397 565.874 917.928 563.765 913.491 559.548C909.055 555.332 906.837 549.841 906.837 543.076C906.837 536.312 909.055 530.843 913.491 526.67C917.928 522.453 923.397 520.345 929.898 520.345C937.453 520.345 943.361 523.398 947.622 529.503L941.296 533.061C940.067 531.348 938.441 529.943 936.421 528.844C934.444 527.746 932.27 527.197 929.898 527.197C925.549 527.197 921.925 528.691 919.026 531.678C916.171 534.665 914.743 538.464 914.743 543.076C914.743 547.689 916.171 551.51 919.026 554.541C921.925 557.528 925.549 559.021 929.898 559.021C931.962 559.021 933.917 558.626 935.762 557.835C937.651 557.045 939.166 556.122 940.308 555.068L940.308 548.216L927.196 548.216L927.196 541.429L948.017 541.429L948.017 557.901C943.229 563.216 937.189 565.874 929.898 565.874ZM605.394 636.017L597.685 636.017L597.685 616.844L574.822 616.844L574.822 636.017L567.113 636.017L567.113 592.07L574.822 592.07L574.822 610.057L597.685 610.057L597.685 592.07L605.394 592.07L605.394 636.017ZM639.359 636.017L631.65 636.017L631.65 592.07L639.359 592.07L639.359 636.017ZM673.135 636.808C668.259 636.808 664.372 635.271 661.473 632.196L665.031 626.332C667.271 628.748 669.775 629.955 672.542 629.955C674.914 629.955 676.781 629.231 678.143 627.781C679.548 626.332 680.251 624.399 680.251 621.983L680.251 592.07L687.96 592.07L687.96 622.115C687.96 626.947 686.598 630.614 683.875 633.118C681.152 635.578 677.572 636.808 673.135 636.808ZM750.046 636.017L740.558 636.017L725.799 617.503L721.977 621.983L721.977 636.017L714.268 636.017L714.268 592.07L721.977 592.07L721.977 613.022L739.174 592.07L748.728 592.07L730.872 612.824L750.046 636.017ZM799.194 636.017L772.114 636.017L772.114 592.07L779.823 592.07L779.823 629.231L799.194 629.231L799.194 636.017ZM868.735 636.017L861.026 636.017L861.026 603.402L847.519 636.017L844.225 636.017L830.784 603.402L830.784 636.017L823.075 636.017L823.075 592.07L833.946 592.07L845.872 620.995L857.864 592.07L868.735 592.07L868.735 636.017ZM933.095 636.017L925.65 636.017L902.72 604.654L902.72 636.017L895.012 636.017L895.012 592.07L902.918 592.07L925.386 622.576L925.386 592.07L933.095 592.07L933.095 636.017ZM587.275 701.417C583.058 705.678 577.677 707.808 571.132 707.808C564.587 707.808 559.206 705.678 554.989 701.417C550.772 697.112 548.664 691.665 548.664 685.076C548.664 678.487 550.772 673.063 554.989 668.802C559.206 664.497 564.587 662.345 571.132 662.345C577.677 662.345 583.058 664.497 587.275 668.802C591.491 673.063 593.6 678.487 593.6 685.076C593.6 691.665 591.491 697.112 587.275 701.417ZM571.132 700.955C575.481 700.955 578.995 699.462 581.674 696.475C584.354 693.444 585.693 689.645 585.693 685.076C585.693 680.464 584.354 676.665 581.674 673.678C578.995 670.691 575.481 669.197 571.132 669.197C566.739 669.197 563.203 670.691 560.524 673.678C557.888 676.665 556.571 680.464 556.571 685.076C556.571 689.689 557.888 693.488 560.524 696.475C563.203 699.462 566.739 700.955 571.132 700.955ZM625.654 707.017L617.945 707.017L617.945 663.07L637.25 663.07C641.687 663.07 645.179 664.387 647.726 667.023C650.318 669.658 651.614 672.931 651.614 676.84C651.614 680.706 650.318 683.978 647.726 686.658C645.179 689.293 641.687 690.611 637.25 690.611L625.654 690.611L625.654 707.017ZM636.196 683.824C638.392 683.824 640.193 683.188 641.599 681.914C643.004 680.64 643.707 678.949 643.707 676.84C643.707 674.732 643.004 673.041 641.599 671.767C640.193 670.493 638.392 669.856 636.196 669.856L625.654 669.856L625.654 683.824L636.196 683.824ZM695.445 707.808C688.9 707.808 683.519 705.678 679.302 701.417C675.086 697.112 672.977 691.665 672.977 685.076C672.977 678.487 675.086 673.063 679.302 668.802C683.519 664.497 688.9 662.345 695.445 662.345C701.99 662.345 707.371 664.497 711.588 668.802C715.805 673.063 717.913 678.487 717.913 685.076C717.913 691.358 715.959 696.629 712.049 700.89L715.673 704.975L710.336 709.455L706.514 705.172C703.264 706.929 699.574 707.808 695.445 707.808ZM695.445 700.955C697.685 700.955 699.75 700.516 701.639 699.638L696.236 693.444L701.573 689.03L706.976 695.223C708.996 692.456 710.007 689.074 710.007 685.076C710.007 680.464 708.667 676.665 705.987 673.678C703.308 670.691 699.794 669.197 695.445 669.197C691.053 669.197 687.517 670.691 684.837 673.678C682.202 676.665 680.884 680.464 680.884 685.076C680.884 689.689 682.202 693.488 684.837 696.475C687.517 699.462 691.053 700.955 695.445 700.955ZM776.257 707.017L767.362 707.017L757.61 690.611L749.967 690.611L749.967 707.017L742.258 707.017L742.258 663.07L761.563 663.07C765.868 663.07 769.338 664.343 771.974 666.891C774.609 669.439 775.927 672.755 775.927 676.84C775.927 680.53 774.917 683.495 772.896 685.735C770.876 687.932 768.416 689.271 765.517 689.754L776.257 707.017ZM760.509 683.824C762.705 683.824 764.506 683.188 765.912 681.914C767.318 680.64 768.02 678.949 768.02 676.84C768.02 674.732 767.318 673.041 765.912 671.767C764.506 670.493 762.705 669.856 760.509 669.856L749.967 669.856L749.967 683.824L760.509 683.824ZM815.577 707.808C808.021 707.808 802.069 705.48 797.721 700.824L802.004 694.894C805.781 698.935 810.415 700.955 815.906 700.955C818.849 700.955 821.045 700.362 822.495 699.176C823.988 697.99 824.735 696.585 824.735 694.96C824.735 693.29 823.857 691.973 822.1 691.006C820.343 689.996 818.212 689.205 815.708 688.634C813.205 688.063 810.679 687.382 808.131 686.592C805.627 685.801 803.497 684.461 801.74 682.573C799.983 680.684 799.104 678.246 799.104 675.259C799.104 671.569 800.576 668.516 803.519 666.1C806.506 663.641 810.371 662.411 815.115 662.411C821.88 662.411 827.371 664.453 831.588 668.538L827.173 674.271C823.835 670.932 819.596 669.263 814.457 669.263C812.172 669.263 810.349 669.768 808.988 670.778C807.67 671.745 807.011 673.063 807.011 674.732C807.011 675.83 807.472 676.752 808.395 677.499C809.361 678.246 810.591 678.861 812.085 679.344C813.578 679.783 815.225 680.223 817.026 680.662C818.871 681.101 820.694 681.65 822.495 682.309C824.34 682.924 826.009 683.693 827.502 684.615C828.996 685.538 830.204 686.811 831.126 688.437C832.093 690.062 832.576 691.995 832.576 694.235C832.576 698.188 831.148 701.439 828.293 703.986C825.438 706.534 821.199 707.808 815.577 707.808ZM874.783 707.017L867.074 707.017L867.074 669.856L853.765 669.856L853.765 663.07L888.093 663.07L888.093 669.856L874.783 669.856L874.783 707.017ZM930.59 707.808C924.352 707.808 919.608 706.183 916.358 702.932C913.151 699.682 911.548 695.267 911.548 689.689L911.548 663.07L919.323 663.07L919.323 689.425C919.323 692.983 920.289 695.794 922.222 697.859C924.199 699.923 926.988 700.955 930.59 700.955C934.192 700.955 936.959 699.923 938.892 697.859C940.825 695.794 941.791 692.983 941.791 689.425L941.791 663.07L949.566 663.07L949.566 689.623C949.566 695.245 947.941 699.682 944.69 702.932C941.483 706.183 936.783 707.808 930.59 707.808ZM637.577 778.017L627.957 778.017L610.694 734.07L619.458 734.07L632.767 769.649L646.077 734.07L654.84 734.07L637.577 778.017ZM718.402 778.017L710.166 778.017L701.6 745.6L693.101 778.017L684.864 778.017L672.28 734.07L680.911 734.07L689.477 767.936L698.569 734.07L704.697 734.07L713.79 767.936L722.289 734.07L730.921 734.07L718.402 778.017ZM791.614 778.017L782.39 778.017L770.069 760.82L757.748 778.017L748.523 778.017L764.995 755.483L749.511 734.07L758.736 734.07L770.069 750.212L781.336 734.07L790.626 734.07L775.208 755.417L791.614 778.017ZM833.649 778.017L825.94 778.017L825.94 759.766L808.875 734.07L817.704 734.07L829.828 752.914L841.819 734.07L850.648 734.07L833.649 759.766L833.649 778.017ZM903.528 778.017L870.583 778.017L870.583 771.758L893.051 740.856L870.583 740.856L870.583 734.07L903.066 734.07L903.066 740.329L880.598 771.231L903.528 771.231L903.528 778.017Z" fill="white"/>
<path d="M505.052 558.936C505.052 573.276 493.428 584.901 479.088 584.901C464.748 584.901 453.123 573.276 453.123 558.936C453.123 544.596 464.748 532.971 479.088 532.971C493.428 532.971 505.052 544.596 505.052 558.936Z" fill="#11DF0D" stroke="white" stroke-width="3.90865"/>
<path d="M771.742 125.635L763.86 171.98H847.059L838.301 125.635H771.742Z" stroke="white" stroke-width="5.58378"/>
<path d="M516.995 855.435L524.877 809.09L441.679 809.09L450.436 855.435L516.995 855.435Z" stroke="white" stroke-width="5.58378"/>
<rect x="12.8436" y="850.409" width="60.8632" height="60.3048" fill="#1D1D1B" stroke="white" stroke-width="5.58378"/>
<rect x="33.5029" y="841.475" width="20.66" height="20.1016" fill="#1D1D1B"/>
<rect x="66.4482" y="871.069" width="20.1016" height="20.1016" fill="#1D1D1B"/>
<rect x="33.5029" y="903.456" width="20.66" height="20.66" fill="#1D1D1B"/>
<rect x="12.8436" y="850.409" width="60.8632" height="60.3048" fill="#1D1D1B" stroke="white" stroke-width="5.58378"/>
<rect x="33.5029" y="841.475" width="20.66" height="20.1016" fill="#1D1D1B"/>
<rect x="66.4482" y="871.069" width="20.1016" height="20.1016" fill="#1D1D1B"/>
<rect x="33.5029" y="903.456" width="20.66" height="20.66" fill="#1D1D1B"/>
<path d="M73.7031 850.968L98.9286 809.09H119.012H139.442H162.305H368.527" stroke="white" stroke-width="5.58378"/>
<path d="M192.643 659.444L212.465 582.388L243.455 700.485L266.069 625.662L282.821 677.87L309.064 592.718L335.153 686.246L349.826 635.992L365.74 674.52L389.192 604.723L403.71 659.444H192.643Z" stroke="#11DF0D" stroke-width="3.35027"/>
<path d="M404.263 718.633V569.867V542.185H381.912H315.76H191.521V659.724L214.135 684.013V718.633H191.521M404.263 718.633V808.811H221.952L191.521 778.937V718.633M404.263 718.633H191.521" stroke="white" stroke-width="5.58378"/>
<path d="M1011.22 207.717L891.73 207.717L891.73 271.93L948.685 328.047L948.685 388.352L1011.22 419.342L1011.22 207.717Z" stroke="white" stroke-width="3.35027"/>
<rect x="893.406" y="213.301" width="116.143" height="3.35027" fill="white"/>
<rect x="893.406" y="220.001" width="116.143" height="3.35027" fill="white"/>
<rect x="893.406" y="226.702" width="116.143" height="3.35027" fill="white"/>
<rect x="893.406" y="233.402" width="116.143" height="3.35027" fill="white"/>
<rect x="893.406" y="240.103" width="116.143" height="3.35027" fill="white"/>
<rect x="893.406" y="246.803" width="116.143" height="3.35027" fill="white"/>
<rect x="893.406" y="253.504" width="116.143" height="3.35027" fill="white"/>
<rect x="893.406" y="260.204" width="116.143" height="3.35027" fill="white"/>
<rect x="893.406" y="266.905" width="116.143" height="3.35027" fill="white"/>
<rect x="894.521" y="273.605" width="115.026" height="3.35027" fill="white"/>
<rect x="901.78" y="280.306" width="107.767" height="3.35027" fill="white"/>
<rect x="909.042" y="287.006" width="100.508" height="3.35027" fill="white"/>
<rect x="915.74" y="293.707" width="93.8076" height="3.35027" fill="white"/>
<rect x="922.998" y="300.407" width="86.5486" height="3.35027" fill="white"/>
<rect x="929.699" y="307.108" width="79.8481" height="3.35027" fill="white"/>
<rect x="936.401" y="313.808" width="73.1476" height="3.35027" fill="white"/>
<rect x="943.659" y="320.509" width="65.8886" height="3.35027" fill="white"/>
<rect x="948.126" y="327.209" width="61.4216" height="3.35027" fill="white"/>
<rect x="948.126" y="333.91" width="61.4216" height="3.35027" fill="white"/>
<rect x="948.126" y="340.61" width="61.4216" height="3.35027" fill="white"/>
<rect x="948.126" y="347.311" width="61.4216" height="3.35027" fill="white"/>
<rect x="948.126" y="354.011" width="61.4216" height="3.35027" fill="white"/>
<rect x="948.126" y="360.712" width="61.4216" height="3.35027" fill="white"/>
<rect x="948.126" y="367.413" width="61.4216" height="3.35027" fill="white"/>
<rect x="948.126" y="374.113" width="61.4216" height="3.35027" fill="white"/>
<rect x="948.126" y="380.814" width="61.4216" height="3.35027" fill="white"/>
<rect x="950.36" y="387.514" width="59.1881" height="3.35027" fill="white"/>
<rect x="964.316" y="394.215" width="45.2286" height="3.35027" fill="white"/>
<rect x="977.161" y="400.915" width="32.3859" height="3.35027" fill="white"/>
<rect x="990.562" y="407.616" width="18.9849" height="3.35027" fill="white"/>
<path d="M448.658 763.023V612.261H493.887L529.623 647.997V794.571H480.207L448.658 763.023Z" stroke="white" stroke-width="3.35027"/>
<rect x="453.405" y="639.342" width="42.9951" height="3.35027" fill="#FFFDFD"/>
<rect x="453.405" y="629.292" width="39.0865" height="3.35027" fill="#FFFDFD"/>
<rect x="453.405" y="649.393" width="23.4519" height="3.35027" fill="#FFFDFD"/>
<rect x="453.405" y="659.444" width="29.5941" height="3.35027" fill="#FFFDFD"/>
<rect x="453.405" y="699.648" width="29.5941" height="3.35027" fill="#FFFDFD"/>
<rect x="495.281" y="699.648" width="29.5941" height="3.35027" fill="#FFFDFD"/>
<rect x="495.281" y="749.902" width="29.5941" height="3.35027" fill="#FFFDFD"/>
<rect x="453.405" y="709.698" width="47.4622" height="3.35027" fill="#FFFDFD"/>
<rect x="477.411" y="679.546" width="47.4622" height="3.35027" fill="#FFFDFD"/>
<rect x="477.411" y="669.495" width="47.4622" height="3.35027" fill="#FFFDFD"/>
<rect x="453.405" y="719.749" width="44.1119" height="3.35027" fill="#FFFDFD"/>
<rect x="453.405" y="729.8" width="50.8124" height="3.35027" fill="#FFFDFD"/>
<rect x="453.405" y="739.851" width="33.5027" height="3.35027" fill="#FFFDFD"/>
<rect x="453.405" y="749.901" width="26.2438" height="3.35027" fill="#FFFDFD"/>
<rect x="453.405" y="759.952" width="29.5941" height="3.35027" fill="#FFFDFD"/>
<rect x="453.405" y="669.495" width="11.7259" height="3.35027" fill="#FFFDFD"/>
<rect x="508.125" y="649.393" width="11.7259" height="3.35027" fill="#FFFDFD"/>
<rect x="494.723" y="739.851" width="11.7259" height="3.35027" fill="#FFFDFD"/>
<rect x="513.15" y="739.851" width="11.7259" height="3.35027" fill="#FFFDFD"/>
<rect x="513.15" y="709.698" width="11.7259" height="3.35027" fill="#FFFDFD"/>
<rect x="453.405" y="689.597" width="16.7514" height="3.35027" fill="#FFFDFD"/>
<rect x="478.529" y="689.597" width="16.7514" height="3.35027" fill="#FFFDFD"/>
<rect x="508.125" y="659.444" width="16.7514" height="3.35027" fill="#FFFDFD"/>
<rect x="508.125" y="759.952" width="16.7514" height="3.35027" fill="#FFFDFD"/>
<rect x="508.125" y="689.597" width="16.7514" height="3.35027" fill="#FFFDFD"/>
<rect x="453.405" y="679.546" width="7.25892" height="3.35027" fill="#FFFDFD"/>
<rect x="508.125" y="639.342" width="7.25892" height="3.35027" fill="#FFFDFD"/>
<rect x="520.409" y="729.8" width="4.46703" height="3.35027" fill="#FFFDFD"/>
<path d="M201.573 772.612V728.683H272.227H394.214V799.597H229.492L201.573 772.612Z" stroke="white" stroke-width="3.35027"/>
<path d="M38.8478 885.318C37.8125 883.9 37.2949 882.078 37.2949 879.855C37.2949 878.436 37.6208 877.171 38.2727 876.059C38.9628 874.947 39.7105 874.122 40.5157 873.586C41.3208 873.049 42.0493 872.531 42.7011 872.033C43.3913 871.534 43.7364 871.093 43.7364 870.71C43.7364 869.905 42.9887 869.502 41.4934 869.502C39.6913 869.502 38.0234 870.307 36.4897 871.918L30.0483 864.499C31.6587 862.773 33.5949 861.47 35.8571 860.588C38.1576 859.706 40.4773 859.265 42.8162 859.265C46.6887 859.265 49.7561 860.108 52.0182 861.796C54.3188 863.444 55.469 865.687 55.469 868.525C55.469 870.02 55.1815 871.362 54.6063 872.55C54.0695 873.739 53.3986 874.678 52.5934 875.369C51.7882 876.059 50.983 876.711 50.1778 877.324C49.3727 877.899 48.6825 878.513 48.1074 879.164C47.5706 879.778 47.3022 880.43 47.3022 881.12C47.3022 882.04 47.5131 882.749 47.9348 883.248L38.8478 885.318ZM47.4747 897.051C46.2861 898.278 44.8483 898.891 43.1613 898.891C41.4742 898.891 40.0172 898.278 38.7903 897.051C37.6017 895.824 37.0074 894.386 37.0074 892.737C37.0074 891.089 37.6017 889.651 38.7903 888.424C40.0172 887.197 41.4742 886.584 43.1613 886.584C44.8483 886.584 46.2861 887.197 47.4747 888.424C48.7017 889.651 49.3151 891.089 49.3151 892.737C49.3151 894.386 48.7017 895.824 47.4747 897.051Z" fill="white"/>
<path d="M470.153 855.993L470.153 918.922L734.825 969.344L734.825 1002.29" stroke="white" stroke-width="1.67513"/>
<path d="M484.112 855.993L484.112 911.105L746.498 960.499L746.498 979.499" stroke="white" stroke-width="1.67513"/>
<path d="M564 0L564 39.1328L806 54.054L806 125" stroke="white" stroke-width="1.73"/>
<path d="M576 0L576 31.5431L816 46.7705L816 125" stroke="white" stroke-width="1.73"/>
<path d="M191.521 174.214L191.521 396.727L321.064 526.388L420.498 526.388L420.498 606.398L420.498 692.667L420.498 808.531L929.547 808.531L1033 683.078L1033 174.213L191.521 174.214Z" stroke="white" stroke-width="5.58378"/>
<path d="M207.156 201.575L207.156 332.514L207.156 391.702L325.039 508.962L532.653 508.962L615.933 432.464L747.012 432.464L1011.22 432.464L1011.22 207.717L207.156 201.575Z" stroke="white" stroke-width="5.58378"/>
<rect x="279.669" y="188.853" width="42.4123" height="69.4268" fill="#1D1D1B"/>
<rect x="361.84" y="182.816" width="42.4123" height="69.4268" fill="#1D1D1B"/>
<rect x="444.017" y="182.816" width="42.4123" height="69.4268" fill="#1D1D1B"/>
<rect x="526.191" y="182.816" width="42.4123" height="69.4268" fill="#1D1D1B"/>
<rect x="551.678" y="836.984" width="42.4123" height="69.4269" transform="rotate(-90 551.678 836.984)" fill="#1D1D1B"/>
<rect x="687.361" y="836.984" width="42.4123" height="69.4269" transform="rotate(-90 687.361 836.984)" fill="#1D1D1B"/>
<rect x="823.048" y="836.984" width="42.4123" height="69.4269" transform="rotate(-90 823.048 836.984)" fill="#1D1D1B"/>
<path d="M593.037 565.017L584.274 565.017L581.045 556.583L560.883 556.583L557.655 565.017L548.892 565.017L566.154 521.07L575.774 521.07L593.037 565.017ZM578.871 549.797L570.964 528.844L563.058 549.797L578.871 549.797ZM636.964 565.017L614.76 565.017L614.76 521.07L636.371 521.07C640.281 521.07 643.333 522.146 645.53 524.298C647.77 526.407 648.89 529.064 648.89 532.271C648.89 534.906 648.143 537.146 646.65 538.991C645.2 540.792 643.399 541.912 641.247 542.352C643.619 542.703 645.618 543.933 647.243 546.041C648.912 548.106 649.747 550.478 649.747 553.157C649.747 556.671 648.605 559.527 646.32 561.723C644.08 563.919 640.961 565.017 636.964 565.017ZM634.79 539.255C636.723 539.255 638.238 538.728 639.336 537.673C640.434 536.619 640.983 535.258 640.983 533.588C640.983 531.875 640.434 530.492 639.336 529.437C638.238 528.383 636.723 527.856 634.79 527.856L622.469 527.856L622.469 539.255L634.79 539.255ZM635.119 558.231C637.228 558.231 638.875 557.704 640.061 556.649C641.247 555.551 641.84 554.036 641.84 552.103C641.84 550.39 641.247 548.962 640.061 547.82C638.875 546.634 637.228 546.041 635.119 546.041L622.469 546.041L622.469 558.231L635.119 558.231ZM695.491 565.808C688.902 565.808 683.412 563.699 679.019 559.483C674.627 555.222 672.43 549.753 672.43 543.076C672.43 536.4 674.627 530.953 679.019 526.736C683.412 522.475 688.902 520.345 695.491 520.345C703.134 520.345 709.02 523.639 713.149 530.228L706.561 533.588C705.462 531.7 703.903 530.162 701.882 528.976C699.906 527.79 697.775 527.197 695.491 527.197C691.143 527.197 687.519 528.691 684.62 531.678C681.764 534.665 680.337 538.464 680.337 543.076C680.337 547.689 681.764 551.488 684.62 554.475C687.519 557.462 691.143 558.955 695.491 558.955C697.819 558.955 699.972 558.362 701.948 557.176C703.925 555.99 705.462 554.453 706.561 552.564L713.149 555.925C708.933 562.513 703.047 565.808 695.491 565.808ZM752.582 565.017L736.242 565.017L736.242 521.07L752.582 521.07C759.391 521.07 764.925 523.112 769.186 527.197C773.447 531.282 775.577 536.575 775.577 543.076C775.577 549.533 773.447 554.805 769.186 558.89C764.969 562.975 759.435 565.017 752.582 565.017ZM752.582 558.231C757.194 558.231 760.862 556.781 763.586 553.882C766.309 550.983 767.671 547.381 767.671 543.076C767.671 538.64 766.331 534.994 763.652 532.139C761.016 529.284 757.326 527.856 752.582 527.856L743.951 527.856L743.951 558.231L752.582 558.231ZM830.054 565.017L799.943 565.017L799.943 521.07L830.054 521.07L830.054 527.856L807.652 527.856L807.652 539.255L829.593 539.255L829.593 546.041L807.652 546.041L807.652 558.231L830.054 558.231L830.054 565.017ZM862.602 565.017L854.893 565.017L854.893 521.07L885.004 521.07L885.004 527.856L862.602 527.856L862.602 539.255L884.543 539.255L884.543 546.041L862.602 546.041L862.602 565.017ZM929.898 565.874C923.397 565.874 917.928 563.765 913.491 559.548C909.055 555.332 906.837 549.841 906.837 543.076C906.837 536.312 909.055 530.843 913.491 526.67C917.928 522.453 923.397 520.345 929.898 520.345C937.453 520.345 943.361 523.398 947.622 529.503L941.296 533.061C940.067 531.348 938.441 529.943 936.421 528.844C934.444 527.746 932.27 527.197 929.898 527.197C925.549 527.197 921.925 528.691 919.026 531.678C916.171 534.665 914.743 538.464 914.743 543.076C914.743 547.689 916.171 551.51 919.026 554.541C921.925 557.528 925.549 559.021 929.898 559.021C931.962 559.021 933.917 558.626 935.762 557.835C937.651 557.045 939.166 556.122 940.308 555.068L940.308 548.216L927.196 548.216L927.196 541.429L948.017 541.429L948.017 557.901C943.229 563.216 937.189 565.874 929.898 565.874ZM605.394 636.017L597.685 636.017L597.685 616.844L574.822 616.844L574.822 636.017L567.113 636.017L567.113 592.07L574.822 592.07L574.822 610.057L597.685 610.057L597.685 592.07L605.394 592.07L605.394 636.017ZM639.359 636.017L631.65 636.017L631.65 592.07L639.359 592.07L639.359 636.017ZM673.135 636.808C668.259 636.808 664.372 635.271 661.473 632.196L665.031 626.332C667.271 628.748 669.775 629.955 672.542 629.955C674.914 629.955 676.781 629.231 678.143 627.781C679.548 626.332 680.251 624.399 680.251 621.983L680.251 592.07L687.96 592.07L687.96 622.115C687.96 626.947 686.598 630.614 683.875 633.118C681.152 635.578 677.572 636.808 673.135 636.808ZM750.046 636.017L740.558 636.017L725.799 617.503L721.977 621.983L721.977 636.017L714.268 636.017L714.268 592.07L721.977 592.07L721.977 613.022L739.174 592.07L748.728 592.07L730.872 612.824L750.046 636.017ZM799.194 636.017L772.114 636.017L772.114 592.07L779.823 592.07L779.823 629.231L799.194 629.231L799.194 636.017ZM868.735 636.017L861.026 636.017L861.026 603.402L847.519 636.017L844.225 636.017L830.784 603.402L830.784 636.017L823.075 636.017L823.075 592.07L833.946 592.07L845.872 620.995L857.864 592.07L868.735 592.07L868.735 636.017ZM933.095 636.017L925.65 636.017L902.72 604.654L902.72 636.017L895.012 636.017L895.012 592.07L902.918 592.07L925.386 622.576L925.386 592.07L933.095 592.07L933.095 636.017ZM587.275 701.417C583.058 705.678 577.677 707.808 571.132 707.808C564.587 707.808 559.206 705.678 554.989 701.417C550.772 697.112 548.664 691.665 548.664 685.076C548.664 678.487 550.772 673.063 554.989 668.802C559.206 664.497 564.587 662.345 571.132 662.345C577.677 662.345 583.058 664.497 587.275 668.802C591.491 673.063 593.6 678.487 593.6 685.076C593.6 691.665 591.491 697.112 587.275 701.417ZM571.132 700.955C575.481 700.955 578.995 699.462 581.674 696.475C584.354 693.444 585.693 689.645 585.693 685.076C585.693 680.464 584.354 676.665 581.674 673.678C578.995 670.691 575.481 669.197 571.132 669.197C566.739 669.197 563.203 670.691 560.524 673.678C557.888 676.665 556.571 680.464 556.571 685.076C556.571 689.689 557.888 693.488 560.524 696.475C563.203 699.462 566.739 700.955 571.132 700.955ZM625.654 707.017L617.945 707.017L617.945 663.07L637.25 663.07C641.687 663.07 645.179 664.387 647.726 667.023C650.318 669.658 651.614 672.931 651.614 676.84C651.614 680.706 650.318 683.978 647.726 686.658C645.179 689.293 641.687 690.611 637.25 690.611L625.654 690.611L625.654 707.017ZM636.196 683.824C638.392 683.824 640.193 683.188 641.599 681.914C643.004 680.64 643.707 678.949 643.707 676.84C643.707 674.732 643.004 673.041 641.599 671.767C640.193 670.493 638.392 669.856 636.196 669.856L625.654 669.856L625.654 683.824L636.196 683.824ZM695.445 707.808C688.9 707.808 683.519 705.678 679.302 701.417C675.086 697.112 672.977 691.665 672.977 685.076C672.977 678.487 675.086 673.063 679.302 668.802C683.519 664.497 688.9 662.345 695.445 662.345C701.99 662.345 707.371 664.497 711.588 668.802C715.805 673.063 717.913 678.487 717.913 685.076C717.913 691.358 715.959 696.629 712.049 700.89L715.673 704.975L710.336 709.455L706.514 705.172C703.264 706.929 699.574 707.808 695.445 707.808ZM695.445 700.955C697.685 700.955 699.75 700.516 701.639 699.638L696.236 693.444L701.573 689.03L706.976 695.223C708.996 692.456 710.007 689.074 710.007 685.076C710.007 680.464 708.667 676.665 705.987 673.678C703.308 670.691 699.794 669.197 695.445 669.197C691.053 669.197 687.517 670.691 684.837 673.678C682.202 676.665 680.884 680.464 680.884 685.076C680.884 689.689 682.202 693.488 684.837 696.475C687.517 699.462 691.053 700.955 695.445 700.955ZM776.257 707.017L767.362 707.017L757.61 690.611L749.967 690.611L749.967 707.017L742.258 707.017L742.258 663.07L761.563 663.07C765.868 663.07 769.338 664.343 771.974 666.891C774.609 669.439 775.927 672.755 775.927 676.84C775.927 680.53 774.917 683.495 772.896 685.735C770.876 687.932 768.416 689.271 765.517 689.754L776.257 707.017ZM760.509 683.824C762.705 683.824 764.506 683.188 765.912 681.914C767.318 680.64 768.02 678.949 768.02 676.84C768.02 674.732 767.318 673.041 765.912 671.767C764.506 670.493 762.705 669.856 760.509 669.856L749.967 669.856L749.967 683.824L760.509 683.824ZM815.577 707.808C808.021 707.808 802.069 705.48 797.721 700.824L802.004 694.894C805.781 698.935 810.415 700.955 815.906 700.955C818.849 700.955 821.045 700.362 822.495 699.176C823.988 697.99 824.735 696.585 824.735 694.96C824.735 693.29 823.857 691.973 822.1 691.006C820.343 689.996 818.212 689.205 815.708 688.634C813.205 688.063 810.679 687.382 808.131 686.592C805.627 685.801 803.497 684.461 801.74 682.573C799.983 680.684 799.104 678.246 799.104 675.259C799.104 671.569 800.576 668.516 803.519 666.1C806.506 663.641 810.371 662.411 815.115 662.411C821.88 662.411 827.371 664.453 831.588 668.538L827.173 674.271C823.835 670.932 819.596 669.263 814.457 669.263C812.172 669.263 810.349 669.768 808.988 670.778C807.67 671.745 807.011 673.063 807.011 674.732C807.011 675.83 807.472 676.752 808.395 677.499C809.361 678.246 810.591 678.861 812.085 679.344C813.578 679.783 815.225 680.223 817.026 680.662C818.871 681.101 820.694 681.65 822.495 682.309C824.34 682.924 826.009 683.693 827.502 684.615C828.996 685.538 830.204 686.811 831.126 688.437C832.093 690.062 832.576 691.995 832.576 694.235C832.576 698.188 831.148 701.439 828.293 703.986C825.438 706.534 821.199 707.808 815.577 707.808ZM874.783 707.017L867.074 707.017L867.074 669.856L853.765 669.856L853.765 663.07L888.093 663.07L888.093 669.856L874.783 669.856L874.783 707.017ZM930.59 707.808C924.352 707.808 919.608 706.183 916.358 702.932C913.151 699.682 911.548 695.267 911.548 689.689L911.548 663.07L919.323 663.07L919.323 689.425C919.323 692.983 920.289 695.794 922.222 697.859C924.199 699.923 926.988 700.955 930.59 700.955C934.192 700.955 936.959 699.923 938.892 697.859C940.825 695.794 941.791 692.983 941.791 689.425L941.791 663.07L949.566 663.07L949.566 689.623C949.566 695.245 947.941 699.682 944.69 702.932C941.483 706.183 936.783 707.808 930.59 707.808ZM637.577 778.017L627.957 778.017L610.694 734.07L619.458 734.07L632.767 769.649L646.077 734.07L654.84 734.07L637.577 778.017ZM718.402 778.017L710.166 778.017L701.6 745.6L693.101 778.017L684.864 778.017L672.28 734.07L680.911 734.07L689.477 767.936L698.569 734.07L704.697 734.07L713.79 767.936L722.289 734.07L730.921 734.07L718.402 778.017ZM791.614 778.017L782.39 778.017L770.069 760.82L757.748 778.017L748.523 778.017L764.995 755.483L749.511 734.07L758.736 734.07L770.069 750.212L781.336 734.07L790.626 734.07L775.208 755.417L791.614 778.017ZM833.649 778.017L825.94 778.017L825.94 759.766L808.875 734.07L817.704 734.07L829.828 752.914L841.819 734.07L850.648 734.07L833.649 759.766L833.649 778.017ZM903.528 778.017L870.583 778.017L870.583 771.758L893.051 740.856L870.583 740.856L870.583 734.07L903.066 734.07L903.066 740.329L880.598 771.231L903.528 771.231L903.528 778.017Z" fill="white"/>
<path d="M505.052 558.936C505.052 573.276 493.428 584.901 479.088 584.901C464.748 584.901 453.123 573.276 453.123 558.936C453.123 544.596 464.748 532.971 479.088 532.971C493.428 532.971 505.052 544.596 505.052 558.936Z" fill="#11DF0D" stroke="white" stroke-width="3.90865"/>
<path d="M771.742 125.635L763.86 171.98H847.059L838.301 125.635H771.742Z" stroke="white" stroke-width="5.58378"/>
<path d="M516.995 855.435L524.877 809.09L441.679 809.09L450.436 855.435L516.995 855.435Z" stroke="white" stroke-width="5.58378"/>
<rect x="12.8436" y="850.409" width="60.8632" height="60.3048" fill="#1D1D1B" stroke="white" stroke-width="5.58378"/>
<rect x="33.5029" y="841.475" width="20.66" height="20.1016" fill="#1D1D1B"/>
<rect x="66.4482" y="871.069" width="20.1016" height="20.1016" fill="#1D1D1B"/>
<rect x="33.5029" y="903.456" width="20.66" height="20.66" fill="#1D1D1B"/>
<rect x="12.8436" y="850.409" width="60.8632" height="60.3048" fill="#1D1D1B" stroke="white" stroke-width="5.58378"/>
<rect x="33.5029" y="841.475" width="20.66" height="20.1016" fill="#1D1D1B"/>
<rect x="66.4482" y="871.069" width="20.1016" height="20.1016" fill="#1D1D1B"/>
<rect x="33.5029" y="903.456" width="20.66" height="20.66" fill="#1D1D1B"/>
<rect x="-0.00195312" y="871.07" width="20.1016" height="20.1016" fill="#1D1D1B"/>
<path d="M73.7031 850.968L98.9286 809.09H119.012H139.442H162.305H368.527" stroke="white" stroke-width="5.58378"/>
<path d="M192.643 659.444L212.465 582.388L243.455 700.485L266.069 625.662L282.821 677.87L309.064 592.718L335.153 686.246L349.826 635.992L365.74 674.52L389.192 604.723L403.71 659.444H192.643Z" stroke="#11DF0D" stroke-width="3.35027"/>
<path d="M404.263 718.633V569.867V542.185H381.912H315.76H191.521V659.724L214.135 684.013V718.633H191.521M404.263 718.633V808.811H221.952L191.521 778.937V718.633M404.263 718.633H191.521" stroke="white" stroke-width="5.58378"/>
<path d="M1011.22 207.717L891.73 207.717L891.73 271.93L948.685 328.047L948.685 388.352L1011.22 419.342L1011.22 207.717Z" stroke="white" stroke-width="3.35027"/>
<rect x="893.406" y="213.301" width="116.143" height="3.35027" fill="white"/>
<rect x="893.406" y="220.001" width="116.143" height="3.35027" fill="white"/>
<rect x="893.406" y="226.702" width="116.143" height="3.35027" fill="white"/>
<rect x="893.406" y="233.402" width="116.143" height="3.35027" fill="white"/>
<rect x="893.406" y="240.103" width="116.143" height="3.35027" fill="white"/>
<rect x="893.406" y="246.803" width="116.143" height="3.35027" fill="white"/>
<rect x="893.406" y="253.504" width="116.143" height="3.35027" fill="white"/>
<rect x="893.406" y="260.204" width="116.143" height="3.35027" fill="white"/>
<rect x="893.406" y="266.905" width="116.143" height="3.35027" fill="white"/>
<rect x="894.521" y="273.605" width="115.026" height="3.35027" fill="white"/>
<rect x="901.78" y="280.306" width="107.767" height="3.35027" fill="white"/>
<rect x="909.042" y="287.006" width="100.508" height="3.35027" fill="white"/>
<rect x="915.74" y="293.707" width="93.8076" height="3.35027" fill="white"/>
<rect x="922.998" y="300.407" width="86.5486" height="3.35027" fill="white"/>
<rect x="929.699" y="307.108" width="79.8481" height="3.35027" fill="white"/>
<rect x="936.401" y="313.808" width="73.1476" height="3.35027" fill="white"/>
<rect x="943.659" y="320.509" width="65.8886" height="3.35027" fill="white"/>
<rect x="948.126" y="327.209" width="61.4216" height="3.35027" fill="white"/>
<rect x="948.126" y="333.91" width="61.4216" height="3.35027" fill="white"/>
<rect x="948.126" y="340.61" width="61.4216" height="3.35027" fill="white"/>
<rect x="948.126" y="347.311" width="61.4216" height="3.35027" fill="white"/>
<rect x="948.126" y="354.011" width="61.4216" height="3.35027" fill="white"/>
<rect x="948.126" y="360.712" width="61.4216" height="3.35027" fill="white"/>
<rect x="948.126" y="367.413" width="61.4216" height="3.35027" fill="white"/>
<rect x="948.126" y="374.113" width="61.4216" height="3.35027" fill="white"/>
<rect x="948.126" y="380.814" width="61.4216" height="3.35027" fill="white"/>
<rect x="950.36" y="387.514" width="59.1881" height="3.35027" fill="white"/>
<rect x="964.316" y="394.215" width="45.2286" height="3.35027" fill="white"/>
<rect x="977.161" y="400.915" width="32.3859" height="3.35027" fill="white"/>
<rect x="990.562" y="407.616" width="18.9849" height="3.35027" fill="white"/>
<path d="M448.658 763.023V612.261H493.887L529.623 647.997V794.571H480.207L448.658 763.023Z" stroke="white" stroke-width="3.35027"/>
<rect x="453.405" y="639.342" width="42.9951" height="3.35027" fill="#FFFDFD"/>
<rect x="453.405" y="629.292" width="39.0865" height="3.35027" fill="#FFFDFD"/>
<rect x="453.405" y="649.393" width="23.4519" height="3.35027" fill="#FFFDFD"/>
<rect x="453.405" y="659.444" width="29.5941" height="3.35027" fill="#FFFDFD"/>
<rect x="453.405" y="699.648" width="29.5941" height="3.35027" fill="#FFFDFD"/>
<rect x="495.281" y="699.648" width="29.5941" height="3.35027" fill="#FFFDFD"/>
<rect x="495.281" y="749.902" width="29.5941" height="3.35027" fill="#FFFDFD"/>
<rect x="453.405" y="709.698" width="47.4622" height="3.35027" fill="#FFFDFD"/>
<rect x="477.411" y="679.546" width="47.4622" height="3.35027" fill="#FFFDFD"/>
<rect x="477.411" y="669.495" width="47.4622" height="3.35027" fill="#FFFDFD"/>
<rect x="453.405" y="719.749" width="44.1119" height="3.35027" fill="#FFFDFD"/>
<rect x="453.405" y="729.8" width="50.8124" height="3.35027" fill="#FFFDFD"/>
<rect x="453.405" y="739.851" width="33.5027" height="3.35027" fill="#FFFDFD"/>
<rect x="453.405" y="749.901" width="26.2438" height="3.35027" fill="#FFFDFD"/>
<rect x="453.405" y="759.952" width="29.5941" height="3.35027" fill="#FFFDFD"/>
<rect x="453.405" y="669.495" width="11.7259" height="3.35027" fill="#FFFDFD"/>
<rect x="508.125" y="649.393" width="11.7259" height="3.35027" fill="#FFFDFD"/>
<rect x="494.723" y="739.851" width="11.7259" height="3.35027" fill="#FFFDFD"/>
<rect x="513.15" y="739.851" width="11.7259" height="3.35027" fill="#FFFDFD"/>
<rect x="513.15" y="709.698" width="11.7259" height="3.35027" fill="#FFFDFD"/>
<rect x="453.405" y="689.597" width="16.7514" height="3.35027" fill="#FFFDFD"/>
<rect x="478.529" y="689.597" width="16.7514" height="3.35027" fill="#FFFDFD"/>
<rect x="508.125" y="659.444" width="16.7514" height="3.35027" fill="#FFFDFD"/>
<rect x="508.125" y="759.952" width="16.7514" height="3.35027" fill="#FFFDFD"/>
<rect x="508.125" y="689.597" width="16.7514" height="3.35027" fill="#FFFDFD"/>
<rect x="453.405" y="679.546" width="7.25892" height="3.35027" fill="#FFFDFD"/>
<rect x="508.125" y="639.342" width="7.25892" height="3.35027" fill="#FFFDFD"/>
<rect x="520.409" y="729.8" width="4.46703" height="3.35027" fill="#FFFDFD"/>
<path d="M201.573 772.612V728.683H272.227H394.214V799.597H229.492L201.573 772.612Z" stroke="white" stroke-width="3.35027"/>
<path d="M38.8478 885.318C37.8125 883.9 37.2949 882.078 37.2949 879.855C37.2949 878.436 37.6208 877.171 38.2727 876.059C38.9628 874.947 39.7105 874.122 40.5157 873.586C41.3208 873.049 42.0493 872.531 42.7011 872.033C43.3913 871.534 43.7364 871.093 43.7364 870.71C43.7364 869.905 42.9887 869.502 41.4934 869.502C39.6913 869.502 38.0234 870.307 36.4897 871.918L30.0483 864.499C31.6587 862.773 33.5949 861.47 35.8571 860.588C38.1576 859.706 40.4773 859.265 42.8162 859.265C46.6887 859.265 49.7561 860.108 52.0182 861.796C54.3188 863.444 55.469 865.687 55.469 868.525C55.469 870.02 55.1815 871.362 54.6063 872.55C54.0695 873.739 53.3986 874.678 52.5934 875.369C51.7882 876.059 50.983 876.711 50.1778 877.324C49.3727 877.899 48.6825 878.513 48.1074 879.164C47.5706 879.778 47.3022 880.43 47.3022 881.12C47.3022 882.04 47.5131 882.749 47.9348 883.248L38.8478 885.318ZM47.4747 897.051C46.2861 898.278 44.8483 898.891 43.1613 898.891C41.4742 898.891 40.0172 898.278 38.7903 897.051C37.6017 895.824 37.0074 894.386 37.0074 892.737C37.0074 891.089 37.6017 889.651 38.7903 888.424C40.0172 887.197 41.4742 886.584 43.1613 886.584C44.8483 886.584 46.2861 887.197 47.4747 888.424C48.7017 889.651 49.3151 891.089 49.3151 892.737C49.3151 894.386 48.7017 895.824 47.4747 897.051Z" fill="white"/>
<path d="M470.153 855.993L470.153 918.922L734.825 969.344L734.825 1024.5" stroke="white" stroke-width="1.74"/>
<path d="M484.112 855.993L484.112 911.105L746.498 960.499L746.498 1024" stroke="white" stroke-width="1.74"/>
<path d="M498.072 856.552L498.072 903.389L757.999 951.999L757.999 1024" stroke="white" stroke-width="1.74"/>
</svg>
