<svg width="1064" height="1024" viewBox="0 0 1064 1024" fill="none" xmlns="http://www.w3.org/2000/svg">
<path d="M1041.42 891.207L1041.42 270.052L963.766 172.278L609.245 172.278L540.319 270.052L214.881 270.052L214.881 500.042L290.206 575.658L361.168 575.658L361.168 819.372L433.003 891.207L492.413 891.207L599.911 891.207L713.389 891.207L797.82 891.207L922.245 891.207L1041.42 891.207Z" stroke="#FFFEFE" stroke-width="5.81658"/>
<path d="M243.066 151.92L568.526 151.92L568.526 194.381L524.32 256.619L214.878 256.619L214.878 183.979L243.066 151.92Z" stroke="white" stroke-width="4.07161"/>
<path d="M515.599 174.42L515.599 211.249L541.482 211.249L555.151 192.345L555.151 174.42L549.383 164.135L525.075 164.135L515.599 174.42Z" stroke="white" stroke-width="4.07161"/>
<path d="M521.999 206.014L521.999 178.094L548.755 178.094L548.755 192.635L537.995 206.014L521.999 206.014Z" fill="#11DF0D"/>
<path d="M231.93 285.367L231.698 390.339L231.222 493.263L296.852 558.698L1024.62 562.067L1025.91 285.573L231.93 285.367Z" stroke="white" stroke-width="5.81658"/>
<rect width="43.415" height="53.3548" transform="matrix(0.999989 -0.00466221 0.000380111 1 270.848 274.778)" fill="#1D1D1B"/>
<rect width="43.415" height="53.3548" transform="matrix(0.999989 -0.00466221 0.000380111 1 361.747 274.354)" fill="#1D1D1B"/>
<rect width="43.415" height="53.3548" transform="matrix(0.999989 -0.00466221 0.000380111 1 452.633 273.929)" fill="#1D1D1B"/>
<rect width="43.0427" height="52.9309" transform="matrix(0.999989 -0.00466221 0.000380111 1 1019.89 687.129)" fill="#1D1D1B"/>
<rect width="43.0427" height="52.9309" transform="matrix(0.999989 -0.00466221 0.000380111 1 1019.89 771.004)" fill="#1D1D1B"/>
<rect width="43.0427" height="52.9309" transform="matrix(0.999989 -0.00466221 0.000380111 1 1019.89 603.487)" fill="#1D1D1B"/>
<rect width="43.0427" height="52.9309" transform="matrix(0.999989 -0.00466221 0.000380111 1 941.369 533.688)" fill="#1D1D1B"/>
<rect width="43.0427" height="52.9309" transform="matrix(0.999989 -0.00466221 0.000380111 1 851.349 531.942)" fill="#1D1D1B"/>
<rect width="43.0427" height="52.9309" transform="matrix(0.999989 -0.00466221 0.000380111 1 761.188 531.942)" fill="#1D1D1B"/>
<path d="M629.316 200.197L568.661 285.119L1014.21 285.119L946.289 200.197L629.316 200.197Z" stroke="white" stroke-width="5.81658"/>
<path d="M555.33 640.765L546.201 640.765L542.838 631.98L521.836 631.98L518.473 640.765L509.344 640.765L527.327 594.985L537.347 594.985L555.33 640.765ZM540.573 624.91L532.337 603.084L524.101 624.91L540.573 624.91ZM577.958 594.985L609.325 594.985L609.325 602.055L585.989 602.055L585.989 612.075L598.069 612.075C602.69 612.075 606.328 613.471 608.982 616.262C611.681 619.008 613.031 622.394 613.031 626.42C613.031 630.493 611.681 633.902 608.982 636.647C606.328 639.392 602.69 640.765 598.069 640.765L577.958 640.765L577.958 594.985ZM596.97 619.145L585.989 619.145L585.989 633.696L596.97 633.696C599.258 633.696 601.134 633.032 602.599 631.705C604.063 630.378 604.795 628.617 604.795 626.42C604.795 624.224 604.063 622.462 602.599 621.135C601.134 619.808 599.258 619.145 596.97 619.145ZM660.474 640.765L637.344 640.765L637.344 594.985L659.857 594.985C663.929 594.985 667.109 596.106 669.397 598.348C671.731 600.545 672.898 603.313 672.898 606.653C672.898 609.399 672.12 611.732 670.564 613.654C669.054 615.53 667.178 616.697 664.936 617.154C667.407 617.52 669.489 618.802 671.182 620.998C672.92 623.149 673.79 625.619 673.79 628.411C673.79 632.071 672.6 635.045 670.221 637.333C667.887 639.621 664.638 640.765 660.474 640.765ZM658.21 613.929C660.223 613.929 661.801 613.379 662.945 612.281C664.089 611.183 664.661 609.765 664.661 608.026C664.661 606.241 664.089 604.8 662.945 603.702C661.801 602.604 660.223 602.055 658.21 602.055L645.375 602.055L645.375 613.929L658.21 613.929ZM658.553 633.696C660.749 633.696 662.465 633.147 663.7 632.048C664.936 630.904 665.554 629.326 665.554 627.312C665.554 625.528 664.936 624.041 663.7 622.851C662.465 621.616 660.749 620.998 658.553 620.998L645.375 620.998L645.375 633.696L658.553 633.696ZM707.509 640.765L699.478 640.765L699.478 594.985L730.845 594.985L730.845 602.055L707.509 602.055L707.509 640.765ZM752.696 649.207L752.696 634.451C754.526 634.268 755.944 633.81 756.951 633.078C757.958 632.346 758.873 630.836 759.697 628.548C760.566 626.26 761.252 622.92 761.756 618.527L764.432 594.985L795.524 594.985L795.524 633.696L799.78 633.696L799.78 649.207L791.749 649.207L791.749 640.765L760.726 640.765L760.726 649.207L752.696 649.207ZM769.717 619.076C768.939 625.848 766.926 630.721 763.677 633.696L787.494 633.696L787.494 602.055L771.639 602.055L769.717 619.076ZM854.912 640.765L823.545 640.765L823.545 594.985L854.912 594.985L854.912 602.055L831.576 602.055L831.576 613.929L854.431 613.929L854.431 620.998L831.576 620.998L831.576 633.696L854.912 633.696L854.912 640.765ZM907.623 587.572C907.623 588.716 907.211 589.677 906.388 590.455C905.61 591.233 904.672 591.622 903.574 591.622C902.475 591.622 901.514 591.233 900.691 590.455C899.913 589.677 899.524 588.716 899.524 587.572C899.524 586.474 899.913 585.536 900.691 584.758C901.514 583.98 902.475 583.592 903.574 583.592C904.672 583.592 905.61 583.98 906.388 584.758C907.211 585.536 907.623 586.474 907.623 587.572ZM893.21 587.572C893.21 588.716 892.821 589.677 892.043 590.455C891.265 591.233 890.327 591.622 889.229 591.622C888.085 591.622 887.124 591.233 886.346 590.455C885.568 589.677 885.179 588.716 885.179 587.572C885.179 586.474 885.568 585.536 886.346 584.758C887.124 583.98 888.085 583.592 889.229 583.592C890.327 583.592 891.265 583.98 892.043 584.758C892.821 585.536 893.21 586.474 893.21 587.572ZM912.153 640.765L880.786 640.765L880.786 594.985L912.153 594.985L912.153 602.055L888.817 602.055L888.817 613.929L911.673 613.929L911.673 620.998L888.817 620.998L888.817 633.696L912.153 633.696L912.153 640.765ZM501.877 707.765L491.994 707.765L511.967 683.605L493.366 661.985L503.319 661.985L519.517 681.752L519.517 661.985L527.547 661.985L527.547 681.752L543.745 661.985L553.697 661.985L535.097 683.605L555.07 707.765L545.186 707.765L529.812 688.478L527.547 691.155L527.547 707.765L519.517 707.765L519.517 691.155L517.252 688.478L501.877 707.765ZM592.919 708.589C588.984 708.589 585.369 707.902 582.075 706.53C578.826 705.111 576.401 703.327 574.799 701.176L579.124 695.891C580.588 697.584 582.578 698.934 585.095 699.941C587.611 700.947 590.128 701.451 592.645 701.451C595.894 701.451 598.433 700.833 600.263 699.597C602.139 698.316 603.077 696.6 603.077 694.45C603.077 690.149 599.394 687.998 592.027 687.998L582.83 687.998L582.83 680.929L592.027 680.929C595.093 680.929 597.564 680.425 599.44 679.419C601.361 678.412 602.322 676.902 602.322 674.889C602.322 672.83 601.361 671.251 599.44 670.153C597.518 669.009 595.093 668.437 592.164 668.437C587.131 668.437 582.921 670.13 579.535 673.516L575.417 668.505C577.247 666.355 579.695 664.616 582.761 663.289C585.873 661.962 589.259 661.299 592.919 661.299C597.998 661.299 602.162 662.42 605.411 664.662C608.706 666.904 610.353 669.901 610.353 673.653C610.353 676.49 609.346 678.847 607.333 680.723C605.365 682.553 603.055 683.697 600.401 684.154C603.009 684.383 605.434 685.481 607.676 687.449C609.918 689.416 611.039 692.025 611.039 695.273C611.039 699.163 609.323 702.366 605.891 704.882C602.505 707.353 598.181 708.589 592.919 708.589ZM644.497 707.765L636.741 707.765L636.741 661.985L644.771 661.985L644.771 693.763L668.176 661.985L676.412 661.985L676.412 707.765L668.382 707.765L668.382 675.094L644.497 707.765ZM668.588 653.612C665.614 657.638 661.61 659.651 656.577 659.651C651.589 659.651 647.563 657.638 644.497 653.612L647.791 650.866C649.988 653.886 652.916 655.396 656.577 655.396C660.237 655.396 663.143 653.886 665.293 650.866L668.588 653.612ZM741.037 707.765L731.154 707.765L715.779 688.478L711.798 693.146L711.798 707.765L703.768 707.765L703.768 661.985L711.798 661.985L711.798 683.811L729.712 661.985L739.665 661.985L721.064 683.605L741.037 707.765ZM761.074 708.589L761.074 701.451C763.728 701.451 765.718 700.421 767.045 698.362C768.372 696.257 769.402 691.979 770.134 685.527L772.811 661.985L803.903 661.985L803.903 707.765L795.872 707.765L795.872 669.055L780.018 669.055L778.096 686.076C777.547 690.789 776.769 694.679 775.762 697.744C774.801 700.81 773.543 703.121 771.987 704.676C770.477 706.186 768.876 707.216 767.183 707.765C765.535 708.314 763.499 708.589 761.074 708.589ZM878.818 707.765L870.788 707.765L870.788 673.79L856.717 707.765L853.286 707.765L839.284 673.79L839.284 707.765L831.253 707.765L831.253 661.985L842.578 661.985L855.001 692.116L867.493 661.985L878.818 661.985L878.818 707.765ZM946.067 707.765L938.037 707.765L938.037 687.792L914.22 687.792L914.22 707.765L906.19 707.765L906.19 661.985L914.22 661.985L914.22 680.723L938.037 680.723L938.037 661.985L946.067 661.985L946.067 707.765ZM472.548 768.931C468.155 773.369 462.55 775.589 455.732 775.589C448.914 775.589 443.309 773.369 438.916 768.931C434.524 764.447 432.327 758.773 432.327 751.909C432.327 745.046 434.524 739.395 438.916 734.956C443.309 730.472 448.914 728.23 455.732 728.23C462.55 728.23 468.155 730.472 472.548 734.956C476.941 739.395 479.137 745.046 479.137 751.909C479.137 758.773 476.941 764.447 472.548 768.931ZM455.732 768.451C460.262 768.451 463.923 766.895 466.714 763.783C469.505 760.626 470.901 756.668 470.901 751.909C470.901 747.105 469.505 743.147 466.714 740.035C463.923 736.924 460.262 735.368 455.732 735.368C451.156 735.368 447.473 736.924 444.682 740.035C441.936 743.147 440.564 747.105 440.564 751.909C440.564 756.714 441.936 760.672 444.682 763.783C447.473 766.895 451.156 768.451 455.732 768.451ZM544.374 774.765L536.344 774.765L536.344 736.055L512.527 736.055L512.527 774.765L504.497 774.765L504.497 728.985L544.374 728.985L544.374 774.765ZM579.755 774.765L571.725 774.765L571.725 728.985L591.835 728.985C596.457 728.985 600.094 730.358 602.748 733.103C605.448 735.849 606.798 739.258 606.798 743.33C606.798 747.357 605.448 750.765 602.748 753.557C600.094 756.302 596.457 757.675 591.835 757.675L579.755 757.675L579.755 774.765ZM590.737 750.605C593.025 750.605 594.901 749.942 596.365 748.615C597.829 747.288 598.561 745.526 598.561 743.33C598.561 741.134 597.829 739.372 596.365 738.045C594.901 736.718 593.025 736.055 590.737 736.055L579.755 736.055L579.755 750.605L590.737 750.605ZM653.074 775.589C646.211 775.589 640.491 773.392 635.915 769C631.34 764.561 629.052 758.864 629.052 751.909C629.052 744.954 631.34 739.28 635.915 734.888C640.491 730.449 646.211 728.23 653.074 728.23C661.036 728.23 667.167 731.662 671.469 738.525L664.605 742.026C663.461 740.058 661.837 738.457 659.732 737.221C657.673 735.986 655.454 735.368 653.074 735.368C648.544 735.368 644.769 736.924 641.749 740.035C638.775 743.147 637.288 747.105 637.288 751.909C637.288 756.714 638.775 760.672 641.749 763.783C644.769 766.895 648.544 768.451 653.074 768.451C655.499 768.451 657.741 767.833 659.8 766.597C661.86 765.362 663.461 763.76 664.605 761.793L671.469 765.293C667.076 772.157 660.944 775.589 653.074 775.589ZM714.467 774.765L706.437 774.765L706.437 736.055L692.572 736.055L692.572 728.985L728.332 728.985L728.332 736.055L714.467 736.055L714.467 774.765ZM758.256 775.589C756.334 775.589 754.481 775.268 752.696 774.628C750.912 773.987 749.63 773.255 748.853 772.431L751.735 765.842C753.703 767.581 755.693 768.451 757.707 768.451C759.491 768.451 760.887 768.039 761.893 767.215C762.946 766.346 764.044 764.813 765.188 762.617L747.96 728.985L757.089 728.985L769.718 755.684L782.347 728.985L791.475 728.985L772.395 766.186C770.793 769.297 768.94 771.654 766.835 773.255C764.73 774.811 761.871 775.589 758.256 775.589ZM841.823 774.765L833.793 774.765L833.793 770.235C826.975 769.686 821.644 767.81 817.801 764.607C813.957 761.358 812.036 757.126 812.036 751.909C812.036 746.739 813.957 742.552 817.801 739.349C821.644 736.1 826.975 734.201 833.793 733.652L833.793 728.985L841.823 728.985L841.823 733.584C848.595 734.133 853.903 736.032 857.747 739.28C861.636 742.529 863.581 746.739 863.581 751.909C863.581 757.126 861.636 761.358 857.747 764.607C853.903 767.81 848.595 769.686 841.823 770.235L841.823 774.765ZM855.345 751.909C855.345 748.889 854.178 746.396 851.844 744.428C849.511 742.461 846.17 741.248 841.823 740.79L841.823 763.028C846.17 762.571 849.511 761.381 851.844 759.459C854.178 757.492 855.345 754.975 855.345 751.909ZM823.772 744.428C821.439 746.396 820.272 748.889 820.272 751.909C820.272 754.929 821.439 757.423 823.772 759.391C826.106 761.358 829.446 762.571 833.793 763.028L833.793 740.79C829.446 741.248 826.106 742.461 823.772 744.428ZM925.066 783.207L925.066 774.765L888.964 774.765L888.964 728.985L896.994 728.985L896.994 767.696L920.811 767.696L920.811 728.985L928.841 728.985L928.841 767.696L933.097 767.696L933.097 783.207L925.066 783.207ZM963.588 728.985L963.588 741.134C963.588 747.448 966.677 750.605 972.854 750.605C976.332 750.605 979.512 750.033 982.395 748.889L982.395 728.985L990.425 728.985L990.425 774.765L982.395 774.765L982.395 755.959C979.192 757.103 975.737 757.675 972.031 757.675C966.586 757.675 962.467 756.211 959.676 753.282C956.931 750.308 955.558 746.258 955.558 741.134L955.558 728.985L963.588 728.985ZM532.323 796.985L540.354 796.985L540.354 835.696L544.609 835.696L544.609 851.207L536.579 851.207L536.579 842.765L484.69 842.765L484.69 796.985L492.721 796.985L492.721 835.696L508.507 835.696L508.507 796.985L516.537 796.985L516.537 835.696L532.323 835.696L532.323 796.985ZM568.34 796.985L576.37 796.985L576.37 814.075L588.45 814.075C593.072 814.075 596.709 815.471 599.363 818.262C602.063 821.008 603.413 824.394 603.413 828.42C603.413 832.493 602.063 835.902 599.363 838.647C596.709 841.392 593.072 842.765 588.45 842.765L568.34 842.765L568.34 796.985ZM587.352 821.145L576.37 821.145L576.37 835.696L587.352 835.696C589.64 835.696 591.516 835.032 592.98 833.705C594.444 832.378 595.177 830.617 595.177 828.42C595.177 826.224 594.444 824.462 592.98 823.135C591.516 821.808 589.64 821.145 587.352 821.145ZM627.726 796.985L635.756 796.985L635.756 814.075L647.836 814.075C652.458 814.075 656.095 815.471 658.749 818.262C661.449 821.008 662.799 824.394 662.799 828.42C662.799 832.493 661.449 835.902 658.749 838.647C656.095 841.392 652.458 842.765 647.836 842.765L627.726 842.765L627.726 796.985ZM646.738 821.145L635.756 821.145L635.756 835.696L646.738 835.696C649.026 835.696 650.902 835.032 652.366 833.705C653.83 832.378 654.562 830.617 654.562 828.42C654.562 826.224 653.83 824.462 652.366 823.135C650.902 821.808 649.026 821.145 646.738 821.145ZM675.085 842.765L667.054 842.765L667.054 796.985L675.085 796.985L675.085 842.765ZM733.484 842.765L713.374 842.765L713.374 804.055L699.51 804.055L699.51 796.985L721.404 796.985L721.404 814.075L733.484 814.075C738.106 814.075 741.744 815.471 744.397 818.262C747.097 821.008 748.447 824.394 748.447 828.42C748.447 832.493 747.097 835.902 744.397 838.647C741.744 841.392 738.106 842.765 733.484 842.765ZM732.386 821.145L721.404 821.145L721.404 835.696L732.386 835.696C734.674 835.696 736.55 835.032 738.014 833.705C739.479 832.378 740.211 830.617 740.211 828.42C740.211 826.224 739.479 824.462 738.014 823.135C736.55 821.808 734.674 821.145 732.386 821.145ZM787.805 843.589C779.935 843.589 773.804 840.157 769.411 833.293L776.274 829.793C777.418 831.76 779.02 833.362 781.079 834.597C783.138 835.833 785.38 836.451 787.805 836.451C791.832 836.451 795.264 835.215 798.101 832.744C800.938 830.228 802.676 826.979 803.317 822.998L778.883 822.998L778.883 815.929L803.18 815.929C802.402 812.176 800.594 809.156 797.757 806.869C794.966 804.535 791.649 803.368 787.805 803.368C785.426 803.368 783.184 803.986 781.079 805.221C779.02 806.457 777.418 808.058 776.274 810.026L769.411 806.525C773.712 799.662 779.843 796.23 787.805 796.23C794.669 796.23 800.388 798.449 804.964 802.888C809.54 807.28 811.828 812.954 811.828 819.909C811.828 826.864 809.54 832.561 804.964 837C800.388 841.392 794.669 843.589 787.805 843.589ZM875.623 843.589C869.308 843.589 864.001 841.667 859.699 837.823C855.444 833.98 852.996 828.969 852.355 822.792L845.149 822.792L845.149 842.765L837.118 842.765L837.118 796.985L845.149 796.985L845.149 815.723L852.493 815.723C853.408 809.957 855.97 805.267 860.18 801.652C864.39 798.037 869.537 796.23 875.623 796.23C882.441 796.23 888.046 798.472 892.439 802.956C896.831 807.395 899.028 813.046 899.028 819.909C899.028 826.773 896.831 832.447 892.439 836.931C888.046 841.369 882.441 843.589 875.623 843.589ZM875.623 836.451C880.153 836.451 883.813 834.895 886.605 831.783C889.396 828.626 890.791 824.668 890.791 819.909C890.791 815.105 889.396 811.147 886.605 808.035C883.813 804.924 880.153 803.368 875.623 803.368C871.047 803.368 867.364 804.924 864.573 808.035C861.827 811.147 860.454 815.105 860.454 819.909C860.454 824.714 861.827 828.672 864.573 831.783C867.364 834.895 871.047 836.451 875.623 836.451ZM931.594 842.765L922.328 842.765L933.516 824.783C930.496 824.279 927.934 822.884 925.829 820.596C923.724 818.262 922.672 815.174 922.672 811.33C922.672 807.075 924.044 803.62 926.79 800.966C929.535 798.312 933.15 796.985 937.634 796.985L957.744 796.985L957.744 842.765L949.714 842.765L949.714 825.675L941.752 825.675L931.594 842.765ZM938.732 818.605L949.714 818.605L949.714 804.055L938.732 804.055C936.445 804.055 934.569 804.718 933.104 806.045C931.64 807.372 930.908 809.134 930.908 811.33C930.908 813.526 931.64 815.288 933.104 816.615C934.569 817.942 936.445 818.605 938.732 818.605Z" fill="white"/>
<path d="M734.37 122.255L726.159 170.532L812.826 170.532L803.703 122.255L734.37 122.255Z" stroke="white" stroke-width="5.81658"/>
<path d="M342.845 837.427V592.817H199.757L173.001 631.497V891.207H305.619L342.845 837.427Z" stroke="white" stroke-width="3.48995"/>
<path d="M332.085 615.502C332.085 622.409 326.486 628.008 319.58 628.008C312.673 628.008 307.074 622.409 307.074 615.502C307.074 608.595 312.673 602.996 319.58 602.996C326.486 602.996 332.085 608.595 332.085 615.502Z" fill="#11DF0D" stroke="white" stroke-width="4.07161"/>
<rect x="181.725" y="641.676" width="79.1056" height="4.65326" fill="#FFFDFD"/>
<rect x="193.358" y="625.389" width="51.186" height="4.65326" fill="#FFFDFD"/>
<rect x="181.725" y="657.962" width="51.186" height="4.65326" fill="#FFFDFD"/>
<rect x="181.725" y="674.249" width="70.9624" height="4.65326" fill="#FFFDFD"/>
<rect x="181.725" y="706.822" width="125.057" height="4.65326" fill="#FFFDFD"/>
<rect x="181.725" y="739.395" width="125.057" height="4.65326" fill="#FFFDFD"/>
<rect x="181.725" y="771.967" width="125.057" height="4.65326" fill="#FFFDFD"/>
<rect x="181.725" y="788.254" width="88.9938" height="4.65326" fill="#FFFDFD"/>
<rect x="181.725" y="820.827" width="43.0427" height="4.65326" fill="#FFFDFD"/>
<rect x="181.725" y="837.113" width="79.1056" height="4.65326" fill="#FFFDFD"/>
<rect x="181.725" y="853.399" width="104.699" height="4.65326" fill="#FFFDFD"/>
<rect x="181.725" y="690.535" width="40.7161" height="4.65326" fill="#FFFDFD"/>
<rect x="268.975" y="657.963" width="18.6131" height="4.65326" fill="#FFFDFD"/>
<rect x="257.922" y="723.109" width="18.6131" height="4.65326" fill="#FFFDFD"/>
<rect x="181.725" y="869.685" width="18.6131" height="4.65326" fill="#FFFDFD"/>
<rect x="181.725" y="755.682" width="18.6131" height="4.65326" fill="#FFFDFD"/>
<rect x="314.927" y="723.108" width="18.6131" height="4.65326" fill="#FFFDFD"/>
<rect x="297.478" y="657.962" width="36.0628" height="4.65326" fill="#FFFDFD"/>
<rect x="242.8" y="690.535" width="36.0628" height="4.65326" fill="#FFFDFD"/>
<rect x="181.725" y="723.109" width="36.0628" height="4.65326" fill="#FFFDFD"/>
<rect x="211.389" y="755.681" width="36.0628" height="4.65326" fill="#FFFDFD"/>
<rect x="280.026" y="755.681" width="10.4699" height="4.65326" fill="#FFFDFD"/>
<rect x="297.478" y="755.681" width="36.0628" height="4.65326" fill="#FFFDFD"/>
<rect x="287.587" y="641.676" width="29.0829" height="4.65326" fill="#FFFDFD"/>
<path d="M755.82 -6.00021L755.82 122.255" stroke="white" stroke-width="1.74497"/>
<path d="M767.457 -5.71018L767.457 121.673" stroke="white" stroke-width="1.74497"/>
<path d="M779.001 -25.0006L779.091 122.255" stroke="white" stroke-width="1.74497"/>
<rect x="619.713" y="208.922" width="335.035" height="6.39825" fill="white"/>
<rect x="613.315" y="221.137" width="350.74" height="6.39825" fill="white"/>
<rect x="604.59" y="233.352" width="369.353" height="6.39825" fill="white"/>
<rect x="595.286" y="245.566" width="389.711" height="6.39825" fill="white"/>
<rect x="578.419" y="269.996" width="425.774" height="6.39825" fill="white"/>
<rect x="587.142" y="257.781" width="406.579" height="6.39825" fill="white"/>
<path d="M756.92 939.484L765.131 891.207L678.464 891.207L687.587 939.484L756.92 939.484Z" stroke="white" stroke-width="5.81658"/>
<path d="M708.999 940.999L708.999 983.795L863.999 1008.02L863.999 1025.5" stroke="white" stroke-width="1.74497"/>
<path d="M720.001 938.999L720.001 976.422L874.001 1000.42L874.001 1030" stroke="white" stroke-width="1.74497"/>
<path d="M731.002 937.998L731.002 969.631L885.002 992.731L885.002 1027" stroke="white" stroke-width="1.74497"/>
<path d="M20.3584 519.745L47.1147 576.457H56.2655H80.0815H294.901" stroke="white" stroke-width="3.48995"/>
<rect x="21.5216" y="401.959" width="116.913" height="115.75" fill="#1D1D1B" stroke="white" stroke-width="5.81658"/>
<rect x="61.6553" y="387.999" width="38.3895" height="37.2261" fill="#1D1D1B"/>
<rect x="122.73" y="442.676" width="36.6445" height="37.2261" fill="#1D1D1B"/>
<rect x="61.6553" y="502.587" width="38.3895" height="37.8078" fill="#1D1D1B"/>
<rect x="-0.00195312" y="442.675" width="37.2262" height="37.2261" fill="#1D1D1B"/>
<path d="M48.9812 471.868H41.4615V456.605L37.2549 460.774L33.0111 456.344L42.5038 447.038H48.9812V471.868ZM68.8003 470.49C67.1127 471.706 65.0777 472.314 62.6952 472.314C60.3127 472.314 58.2653 471.706 56.5529 470.49C54.8653 469.249 53.6244 467.686 52.8303 465.8C52.0609 463.889 51.6763 461.779 51.6763 459.471C51.6763 455.873 52.6317 452.845 54.5427 450.388C56.4536 447.907 59.1711 446.666 62.6952 446.666C66.2193 446.666 68.9368 447.907 70.8477 450.388C72.7587 452.845 73.7141 455.873 73.7141 459.471C73.7141 461.779 73.3171 463.889 72.5229 465.8C71.7536 467.686 70.5127 469.249 68.8003 470.49ZM59.2332 459.471C59.2332 463.616 60.3872 465.688 62.6952 465.688C65.0032 465.688 66.1572 463.616 66.1572 459.471C66.1572 455.352 65.0032 453.292 62.6952 453.292C60.3872 453.292 59.2332 455.352 59.2332 459.471ZM92.1757 470.49C90.4881 471.706 88.4531 472.314 86.0706 472.314C83.6881 472.314 81.6407 471.706 79.9283 470.49C78.2407 469.249 76.9998 467.686 76.2057 465.8C75.4363 463.889 75.0517 461.779 75.0517 459.471C75.0517 455.873 76.0071 452.845 77.9181 450.388C79.829 447.907 82.5465 446.666 86.0706 446.666C89.5947 446.666 92.3122 447.907 94.2231 450.388C96.1341 452.845 97.0895 455.873 97.0895 459.471C97.0895 461.779 96.6925 463.889 95.8983 465.8C95.129 467.686 93.8881 469.249 92.1757 470.49ZM82.6086 459.471C82.6086 463.616 83.7626 465.688 86.0706 465.688C88.3786 465.688 89.5326 463.616 89.5326 459.471C89.5326 455.352 88.3786 453.292 86.0706 453.292C83.7626 453.292 82.6086 455.352 82.6086 459.471ZM105.128 459.174C103.142 459.174 101.542 458.578 100.326 457.387C99.1095 456.196 98.5015 454.719 98.5015 452.957C98.5015 451.17 99.1095 449.681 100.326 448.49C101.542 447.274 103.142 446.666 105.128 446.666C107.138 446.666 108.751 447.274 109.967 448.49C111.208 449.681 111.828 451.17 111.828 452.957C111.828 454.719 111.208 456.196 109.967 457.387C108.751 458.578 107.138 459.174 105.128 459.174ZM106.245 471.868H102.634L118.492 447.038H122.14L106.245 471.868ZM124.336 470.528C123.12 471.719 121.52 472.314 119.534 472.314C117.549 472.314 115.948 471.719 114.732 470.528C113.516 469.336 112.908 467.86 112.908 466.098C112.908 464.311 113.516 462.822 114.732 461.631C115.948 460.414 117.549 459.806 119.534 459.806C121.52 459.806 123.12 460.414 124.336 461.631C125.577 462.822 126.198 464.311 126.198 466.098C126.198 467.86 125.577 469.336 124.336 470.528ZM105.128 455.228C105.773 455.228 106.294 455.042 106.691 454.669C107.088 454.297 107.287 453.726 107.287 452.957C107.287 452.163 107.088 451.579 106.691 451.207C106.294 450.81 105.773 450.612 105.128 450.612C104.507 450.612 103.999 450.81 103.601 451.207C103.229 451.579 103.043 452.163 103.043 452.957C103.043 453.726 103.229 454.297 103.601 454.669C103.999 455.042 104.507 455.228 105.128 455.228ZM119.534 468.368C120.974 468.368 121.693 467.612 121.693 466.098C121.693 465.304 121.495 464.72 121.098 464.348C120.701 463.951 120.18 463.752 119.534 463.752C118.12 463.752 117.412 464.534 117.412 466.098C117.412 467.612 118.12 468.368 119.534 468.368Z" fill="white"/>
</svg>
