<svg width="1106" height="1024" viewBox="0 0 1106 1024" fill="none" xmlns="http://www.w3.org/2000/svg">
<path d="M505.805 276.969L3.00001 276.969L3.00001 396.472L3 761.14L67.5686 841.008L336.734 841.008L336.734 544.874L380.558 501.31L448.497 501.31L511.251 501.31L1050.36 501.31L1050.36 206.213L814.542 206.213L555.075 206.213L505.805 276.969Z" stroke="white" stroke-width="5.18624"/>
<path d="M3.00684 261.187L3.00684 153.314L540.041 153.314L540.041 197.137L496.637 261.187L3.00684 261.187Z" stroke="white" stroke-width="5.18624"/>
<rect x="41.5303" y="129.457" width="26.7105" height="47.7134" fill="#1D1D1B"/>
<rect x="100.089" y="129.456" width="27.7378" height="47.7134" fill="#1D1D1B"/>
<rect x="159.673" y="138.273" width="26.7105" height="47.7134" fill="#1D1D1B"/>
<rect x="218.231" y="138.273" width="27.2241" height="47.7134" fill="#1D1D1B"/>
<rect x="18.4121" y="223.327" width="9.75959" height="26.4498" fill="white"/>
<rect x="18.4121" y="223.327" width="9.75959" height="26.4498" fill="white"/>
<rect x="146.318" y="223.327" width="10.2733" height="26.4498" fill="white"/>
<rect x="146.318" y="223.327" width="10.2733" height="26.4498" fill="white"/>
<rect x="54.8848" y="218.141" width="9.75959" height="31.6361" fill="white"/>
<rect x="54.8848" y="218.141" width="9.75959" height="31.6361" fill="white"/>
<rect x="165.321" y="218.141" width="9.24593" height="31.6361" fill="white"/>
<rect x="165.321" y="218.141" width="9.24593" height="31.6361" fill="white"/>
<rect x="73.374" y="229.551" width="9.24593" height="20.2263" fill="white"/>
<rect x="73.374" y="229.551" width="9.24593" height="20.2263" fill="white"/>
<rect x="109.847" y="229.55" width="9.75959" height="20.2263" fill="white"/>
<rect x="109.847" y="229.55" width="9.75959" height="20.2263" fill="white"/>
<rect x="237.747" y="244.591" width="10.2733" height="5.18624" fill="white"/>
<rect x="237.747" y="244.591" width="10.2733" height="5.18624" fill="white"/>
<rect x="256.755" y="229.551" width="9.24593" height="20.2263" fill="white"/>
<rect x="256.755" y="229.551" width="9.24593" height="20.2263" fill="white"/>
<rect x="274.732" y="226.958" width="9.24593" height="22.8195" fill="white"/>
<rect x="274.732" y="226.958" width="9.24593" height="22.8195" fill="white"/>
<rect x="329.693" y="226.957" width="9.24593" height="22.8195" fill="white"/>
<rect x="329.693" y="226.957" width="9.24593" height="22.8195" fill="white"/>
<rect x="348.189" y="232.144" width="9.24593" height="17.6332" fill="white"/>
<rect x="348.189" y="232.144" width="9.24593" height="17.6332" fill="white"/>
<rect x="439.104" y="232.144" width="10.2733" height="17.6332" fill="white"/>
<rect x="439.104" y="232.144" width="10.2733" height="17.6332" fill="white"/>
<rect x="292.714" y="206.213" width="10.2733" height="43.5644" fill="white"/>
<rect x="292.714" y="206.213" width="10.2733" height="43.5644" fill="white"/>
<rect x="311.718" y="244.591" width="9.24593" height="5.18624" fill="white"/>
<rect x="311.718" y="244.591" width="9.24593" height="5.18624" fill="white"/>
<rect x="458.112" y="244.591" width="9.24593" height="5.18624" fill="white"/>
<rect x="458.112" y="244.591" width="9.24593" height="5.18624" fill="white"/>
<rect x="476.089" y="247.184" width="9.75959" height="2.59312" fill="white"/>
<rect x="476.089" y="247.184" width="9.75959" height="2.59312" fill="white"/>
<rect x="91.3564" y="212.436" width="9.75959" height="37.3409" fill="white"/>
<rect x="91.3564" y="212.436" width="9.75959" height="37.3409" fill="white"/>
<rect x="219.77" y="212.436" width="9.24593" height="37.3409" fill="white"/>
<rect x="219.77" y="212.436" width="9.24593" height="37.3409" fill="white"/>
<rect x="128.342" y="193.766" width="9.24593" height="56.0114" fill="white"/>
<rect x="128.342" y="193.766" width="9.24593" height="56.0114" fill="white"/>
<rect x="384.655" y="206.213" width="9.75959" height="43.5644" fill="white"/>
<rect x="384.655" y="206.213" width="9.75959" height="43.5644" fill="white"/>
<rect x="403.145" y="218.141" width="9.24593" height="31.6361" fill="white"/>
<rect x="403.145" y="218.141" width="9.24593" height="31.6361" fill="white"/>
<rect x="421.128" y="202.582" width="9.24593" height="47.1948" fill="white"/>
<rect x="421.128" y="202.582" width="9.24593" height="47.1948" fill="white"/>
<rect x="183.298" y="193.766" width="9.24593" height="56.0114" fill="white"/>
<rect x="183.298" y="193.766" width="9.24593" height="56.0114" fill="white"/>
<rect x="366.166" y="193.766" width="9.75959" height="56.0114" fill="white"/>
<rect x="366.166" y="193.766" width="9.75959" height="56.0114" fill="white"/>
<rect x="201.28" y="196.359" width="9.75959" height="53.4183" fill="white"/>
<rect x="201.28" y="196.359" width="9.75959" height="53.4183" fill="white"/>
<rect x="36.9082" y="201.026" width="9.24593" height="48.7507" fill="white"/>
<rect x="36.9082" y="201.026" width="9.24593" height="48.7507" fill="white"/>
<path d="M23.2666 303.701L23.2666 384.785L23.2666 442.446L64.7175 483.676L296.987 483.676L472.921 483.676L682.122 483.676L1031.95 483.676L1031.95 303.701L23.2666 303.701Z" stroke="white" stroke-width="5.18624"/>
<rect x="73.6113" y="287.055" width="55.5557" height="71.7818" fill="#1D1D1B"/>
<rect x="189.935" y="287.056" width="55.5557" height="71.7818" fill="#1D1D1B"/>
<rect x="306.252" y="287.056" width="55.5557" height="71.7818" fill="#1D1D1B"/>
<rect x="422.575" y="287.056" width="55.5557" height="71.7818" fill="#1D1D1B"/>
<path d="M319.875 525.167L319.875 526.204L24.2597 526.204L24.2597 525.166L319.875 525.167Z" fill="#4E4E4E"/>
<path d="M319.875 552.135L319.875 553.173L24.2597 553.172L24.2597 552.135L319.875 552.135Z" fill="#4E4E4E"/>
<path d="M317.28 579.104L317.28 580.141L24.2581 580.141L24.2581 579.104L317.28 579.104Z" fill="#4E4E4E"/>
<path d="M317.28 606.071L317.28 607.108L24.2581 607.108L24.2581 606.071L317.28 606.071Z" fill="#4E4E4E"/>
<path d="M317.8 633.04L317.8 634.077L24.7776 634.077L24.7776 633.04L317.8 633.04Z" fill="#4E4E4E"/>
<path d="M318.831 660.009L318.831 661.046L24.7716 661.046L24.7716 660.009L318.831 660.009Z" fill="#4E4E4E"/>
<path d="M318.831 686.977L318.831 688.015L24.7716 688.015L24.7716 686.977L318.831 686.977Z" fill="#4E4E4E"/>
<path d="M318.837 713.946L318.837 714.983L24.7775 714.983L24.7775 713.946L318.837 713.946Z" fill="#4E4E4E"/>
<path d="M318.318 740.913L318.318 741.951L24.2589 741.951L24.2589 740.913L318.318 740.913Z" fill="#4E4E4E"/>
<path d="M318.831 767.882L318.831 768.919L37.7372 768.919L37.7372 767.882L318.831 767.882Z" fill="#4E4E4E"/>
<path d="M318.831 794.851L318.831 795.888L59.0008 795.888L59.0008 794.851L318.831 794.851Z" fill="#4E4E4E"/>
<rect x="77.1553" y="815.077" width="1.03727" height="314.286" transform="rotate(-180 77.1553 815.077)" fill="#4E4E4E"/>
<path d="M50.1895 782.923L49.1522 781.885L49.1522 500.273L50.1895 500.273L50.1895 782.923Z" fill="#4E4E4E"/>
<rect x="131.097" y="823.375" width="1.03727" height="322.584" transform="rotate(-180 131.097 823.375)" fill="#4E4E4E"/>
<rect x="158.062" y="823.375" width="1.03727" height="322.584" transform="rotate(-180 158.062 823.375)" fill="#4E4E4E"/>
<path d="M104.126 823.375L103.089 823.375L103.089 500.272L104.126 500.272L104.126 823.375Z" fill="#4E4E4E"/>
<rect x="211.997" y="823.375" width="1.03727" height="322.584" transform="rotate(-180 211.997 823.375)" fill="#4E4E4E"/>
<path d="M185.026 824.413L183.989 823.223L183.989 500.273L185.026 500.273L185.026 824.413Z" fill="#4E4E4E"/>
<rect x="265.934" y="823.375" width="1.03727" height="322.584" transform="rotate(-180 265.934 823.375)" fill="#4E4E4E"/>
<rect x="292.904" y="823.375" width="1.03727" height="322.584" transform="rotate(-180 292.904 823.375)" fill="#4E4E4E"/>
<rect x="292.904" y="823.375" width="1.03727" height="322.584" transform="rotate(-180 292.904 823.375)" fill="#4E4E4E"/>
<path d="M238.968 823.375L237.93 823.375L237.931 500.272L238.968 500.272L238.968 823.375Z" fill="#4E4E4E"/>
<path d="M318.831 824.413L318.831 659.622L318.831 499.235L23.2158 499.235L23.2157 751.863L82.39 824.413L318.831 824.413Z" stroke="white" stroke-width="5.18624"/>
<path d="M252.451 713.946C252.451 706.786 258.256 700.981 265.417 700.981C272.578 700.981 278.382 706.786 278.382 713.946C278.382 721.107 272.578 726.912 265.417 726.912C258.256 726.912 252.451 721.107 252.451 713.946Z" fill="#1D1D1B" stroke="#11DF0D" stroke-width="5.18624"/>
<ellipse cx="265.273" cy="713.798" rx="5.55668" ry="5.55669" transform="rotate(-180 265.273 713.798)" fill="#11DF0D"/>
<path d="M214.592 781.885C214.592 776.157 219.236 771.513 224.964 771.513C230.693 771.513 235.337 776.157 235.337 781.885C235.337 787.614 230.693 792.258 224.964 792.258C219.236 792.258 214.592 787.614 214.592 781.885Z" fill="#1D1D1B" stroke="#11DF0D" stroke-width="5.18624"/>
<ellipse cx="224.925" cy="781.849" rx="4.63056" ry="4.63057" transform="rotate(-180 224.925 781.849)" fill="#11DF0D"/>
<path d="M228.079 579.621C228.079 573.892 232.723 569.248 238.451 569.248C244.18 569.248 248.824 573.892 248.824 579.621C248.824 585.349 244.18 589.993 238.451 589.993C232.723 589.993 228.079 585.349 228.079 579.621Z" fill="#1D1D1B" stroke="#11DF0D" stroke-width="5.18624"/>
<ellipse cx="238.412" cy="579.584" rx="4.63056" ry="4.63057" transform="rotate(-180 238.412 579.584)" fill="#11DF0D"/>
<path d="M107.236 741.433C107.236 728.544 117.684 718.095 130.574 718.095C143.463 718.095 153.912 728.544 153.912 741.433C153.912 754.322 143.463 764.771 130.574 764.771C117.684 764.771 107.236 754.322 107.236 741.433Z" fill="#1D1D1B" stroke="#11DF0D" stroke-width="5.18624"/>
<ellipse cx="130.674" cy="741.385" rx="9.26113" ry="9.26114" transform="rotate(-180 130.674 741.385)" fill="#11DF0D"/>
<path d="M53.2943 579.622C53.2943 566.733 63.7431 556.284 76.6323 556.284C89.5216 556.284 99.9704 566.733 99.9704 579.622C99.9704 592.511 89.5216 602.96 76.6323 602.96C63.7431 602.96 53.2943 592.511 53.2943 579.622Z" fill="#1D1D1B" stroke="#11DF0D" stroke-width="5.18624"/>
<ellipse cx="76.733" cy="579.574" rx="9.26113" ry="9.26114" transform="rotate(-180 76.733 579.574)" fill="#11DF0D"/>
<path d="M144.573 633.041C144.573 625.881 150.378 620.076 157.539 620.076C164.7 620.076 170.505 625.881 170.505 633.042C170.505 640.202 164.7 646.007 157.539 646.007C150.378 646.007 144.573 640.202 144.573 633.041Z" fill="#1D1D1B" stroke="#11DF0D" stroke-width="5.18624"/>
<ellipse cx="157.39" cy="633.091" rx="5.55668" ry="5.55669" transform="rotate(-180 157.39 633.091)" fill="#11DF0D"/>
<path d="M356.181 554.208L384.186 525.684L721.292 525.684L721.292 551.084L721.292 612.294L356.181 612.294L356.181 554.208Z" stroke="white" stroke-width="5.18624"/>
<path d="M537.998 871.526L566.004 843.002L903.109 843.002L903.109 868.402L903.109 929.612L537.998 929.612L537.998 871.526Z" stroke="white" stroke-width="5.18624"/>
<path d="M356.181 659.231L376.407 630.447L721.292 630.447L721.292 655.847L721.292 717.057L356.181 717.057L356.181 659.231Z" stroke="white" stroke-width="5.18624"/>
<path d="M356.181 765.029L376.407 736.245L721.292 736.245L721.292 761.646L721.292 822.856L356.181 822.856L356.181 765.029Z" stroke="white" stroke-width="5.18624"/>
<path d="M1103 558.421L1069.81 525.684L742.555 525.684L742.555 551.084L742.555 612.294L1103 612.294L1103 558.421Z" stroke="white" stroke-width="5.18624"/>
<path d="M1103 663.183L1069.81 630.447L742.555 630.447L742.555 655.847L742.555 717.057L1103 717.057L1103 663.183Z" stroke="white" stroke-width="5.18624"/>
<path d="M1103 768.982L1069.81 736.245L742.555 736.245L742.555 761.646L742.555 822.856L1103 822.856L1103 768.982Z" stroke="white" stroke-width="5.18624"/>
<path d="M777.882 162.648L770.562 205.694L847.836 205.694L839.702 162.648L777.882 162.648Z" stroke="white" stroke-width="5.18624"/>
<path d="M296.958 884.047L304.278 841.002L227.003 841.002L235.138 884.047L296.958 884.047Z" stroke="white" stroke-width="5.18624"/>
<path d="M799 0.000732422L799 164.001" stroke="white" stroke-width="1.74"/>
<path d="M809.002 0.000488281L809.002 163.001" stroke="white" stroke-width="1.74"/>
<path d="M820.001 0.000233138L820.001 164.001" stroke="white" stroke-width="1.74"/>
<path d="M253.998 884.001L253.998 1025" stroke="white" stroke-width="1.74"/>
<path d="M265.003 884.002L265.003 1024" stroke="white" stroke-width="1.74"/>
<path d="M276.001 884.002L276.001 1025" stroke="white" stroke-width="1.74"/>
</svg>
