<svg width="1104" height="1024" viewBox="0 0 1104 1024" fill="none" xmlns="http://www.w3.org/2000/svg">
<path d="M687.951 661.527L709.136 631.378L1070.37 631.378L1070.37 657.983L1070.37 722.095L687.951 722.095L687.951 661.527Z" stroke="white" stroke-width="5.4321"/>
<path d="M687.951 549.082L709.136 518.933L1070.37 518.933L1070.37 545.538L1070.37 609.649L687.951 609.649L687.951 549.082Z" stroke="white" stroke-width="5.4321"/>
<path d="M687.951 773.971L709.136 743.823L1070.37 743.823L1070.37 770.427L1070.37 834.539L687.951 834.539L687.951 773.971Z" stroke="white" stroke-width="5.4321"/>
<path d="M275.115 153.362L275.115 267.161L275.115 347.828L333.239 405.951L499.175 405.951L643.189 405.951L814.435 405.951L1100.79 405.951L1100.79 208.495L1045.93 153.362L275.115 153.362Z" stroke="white" stroke-width="5.4321"/>
<rect x="319.001" y="130.001" width="50.9436" height="65.1852" fill="#1D1D1B"/>
<rect x="506.455" y="130.001" width="50.9436" height="65.1852" fill="#1D1D1B"/>
<rect x="601.545" y="130.001" width="50.9436" height="65.1852" fill="#1D1D1B"/>
<path d="M239.329 582.745L103.997 707.35L103.997 913.846L279.997 913.846M239.329 582.745L239.329 723.451L279.997 744.365L279.997 913.846M239.329 582.745L239.329 494.76L291.948 440.71L916.839 440.71L1100.79 440.71L1100.79 913.846L321.21 913.846L279.997 913.846" stroke="white" stroke-width="5.4321"/>
<rect x="370.002" y="881.001" width="50.9436" height="65.1852" fill="#1D1D1B"/>
<rect x="465.099" y="881.001" width="50.9436" height="65.1852" fill="#1D1D1B"/>
<rect x="560.004" y="881.001" width="50.9436" height="65.1852" fill="#1D1D1B"/>
<rect x="654.998" y="881.001" width="50.9436" height="65.1852" fill="#1D1D1B"/>
<rect x="106.716" y="899.725" width="171.111" height="5.97532" fill="white"/>
<rect x="106.716" y="888.317" width="171.111" height="5.97532" fill="white"/>
<rect x="106.716" y="876.91" width="171.111" height="5.97532" fill="white"/>
<rect x="106.716" y="865.502" width="171.111" height="5.97532" fill="white"/>
<rect x="106.716" y="854.095" width="171.111" height="5.97532" fill="white"/>
<rect x="106.716" y="842.688" width="171.111" height="5.97532" fill="white"/>
<rect x="106.716" y="831.28" width="171.111" height="5.97532" fill="white"/>
<rect x="106.717" y="819.872" width="171.111" height="5.97532" fill="white"/>
<rect x="106.717" y="808.465" width="171.111" height="5.97532" fill="white"/>
<rect x="106.717" y="797.057" width="171.111" height="5.97532" fill="white"/>
<rect x="106.717" y="785.65" width="171.111" height="5.97532" fill="white"/>
<rect x="106.717" y="774.242" width="171.111" height="5.97532" fill="white"/>
<rect x="106.717" y="762.835" width="171.111" height="5.97532" fill="white"/>
<rect x="106.717" y="751.427" width="171.111" height="5.97532" fill="white"/>
<rect x="106.717" y="740.02" width="171.111" height="5.97532" fill="white"/>
<rect x="106.717" y="728.613" width="148.296" height="5.97532" fill="white"/>
<rect x="106.717" y="717.205" width="130.914" height="5.97532" fill="white"/>
<rect x="106.717" y="705.798" width="130.914" height="5.97532" fill="white"/>
<rect x="114.864" y="694.391" width="122.765" height="5.97532" fill="white"/>
<rect x="127.359" y="682.983" width="110.272" height="5.97532" fill="white"/>
<rect x="139.849" y="671.576" width="97.7778" height="5.97532" fill="white"/>
<rect x="151.259" y="660.168" width="86.3704" height="5.97532" fill="white"/>
<rect x="164.297" y="648.761" width="74.963" height="5.97532" fill="white"/>
<rect x="176.792" y="637.354" width="62.4691" height="5.97532" fill="white"/>
<rect x="189.83" y="625.946" width="49.4321" height="5.97532" fill="white"/>
<rect x="201.777" y="614.539" width="37.4815" height="5.97531" fill="white"/>
<rect x="213.729" y="603.132" width="25.5309" height="5.97531" fill="white"/>
<rect x="226.219" y="591.724" width="13.037" height="5.97531" fill="white"/>
<path d="M405.32 110L397.999 153.046L475.274 153.046L467.14 110L405.32 110Z" stroke="white" stroke-width="5.18624"/>
<path d="M848.952 957.047L856.272 914.001L778.998 914.001L787.132 957.047L848.952 957.047Z" stroke="white" stroke-width="5.18624"/>
<path d="M302.998 0.000244141L302.998 49.8632L427.998 78.0912L427.998 109" stroke="white" stroke-width="1.74498"/>
<path d="M314.003 0.000244141L314.003 41.9475L439.003 68.8503L439.003 109" stroke="white" stroke-width="1.74498"/>
<path d="M325.001 0.000244141L325.001 35.3494L450.001 61.1632L450.001 109" stroke="white" stroke-width="1.74498"/>
<path d="M52.6914 304.902L187.951 304.902L290.074 406.437L333.531 406.437" stroke="white" stroke-width="4.34568"/>
<rect x="12.4934" y="245.692" width="59.2099" height="58.6667" fill="#1D1D1B" stroke="white" stroke-width="5.4321"/>
<rect x="32.5918" y="237.001" width="20.0988" height="19.5556" fill="#1D1D1B"/>
<rect x="64.6436" y="265.791" width="19.5556" height="19.5556" fill="#1D1D1B"/>
<rect x="32.5918" y="297.297" width="20.0988" height="20.0988" fill="#1D1D1B"/>
<rect x="0.00195312" y="265.791" width="19.5556" height="19.5556" fill="#1D1D1B"/>
<rect x="12.4934" y="245.692" width="59.2099" height="58.6667" fill="#1D1D1B" stroke="white" stroke-width="5.4321"/>
<rect x="32.5918" y="237.001" width="20.0988" height="19.5556" fill="#1D1D1B"/>
<rect x="64.6436" y="265.791" width="19.5556" height="19.5556" fill="#1D1D1B"/>
<rect x="32.5918" y="297.297" width="20.0988" height="20.0988" fill="#1D1D1B"/>
<rect x="0.00195312" y="265.791" width="19.5556" height="19.5556" fill="#1D1D1B"/>
<path d="M46.4085 278.532H37.3445L35.8339 255.089H47.8073L46.4085 278.532ZM46.0169 291.289C44.8606 292.445 43.4804 293.023 41.8765 293.023C40.2726 293.023 38.8738 292.445 37.6802 291.289C36.5239 290.095 35.9458 288.697 35.9458 287.093C35.9458 285.451 36.5239 284.053 37.6802 282.896C38.8738 281.703 40.2726 281.106 41.8765 281.106C43.4804 281.106 44.8606 281.703 46.0169 282.896C47.2105 284.053 47.8073 285.451 47.8073 287.093C47.8073 288.697 47.2105 290.095 46.0169 291.289Z" fill="white"/>
<path d="M829.999 957.001L829.999 1002.48L736.999 1017.76L736.999 1147" stroke="white" stroke-width="1.73"/>
<path d="M817.999 957.002L817.999 996.483L724.999 1011.79L724.999 1146" stroke="white" stroke-width="1.73"/>
<path d="M807.001 957.002L807.001 990.949L713.001 1006.39L713.001 1149" stroke="white" stroke-width="1.73"/>
</svg>
