<svg width="1440" height="1024" viewBox="0 0 1440 1024" fill="none" xmlns="http://www.w3.org/2000/svg">
<g clip-path="url(#clip0_294_20452)">
<rect width="1440" height="1024" transform="translate(1440 1024) rotate(180)" fill="#1D1D1B"/>
<path d="M170 123.361L170 237.16L170 317.827L228.123 375.95L394.06 375.95L454 317.827L699.5 317.827L995.678 317.827L995.678 178.494L995.678 123.361L170 123.361Z" stroke="white" stroke-width="5.4321"/>
<rect x="213.886" y="99.9998" width="50.9436" height="65.1852" fill="#1D1D1B"/>
<rect x="401.34" y="99.9998" width="50.9436" height="65.1852" fill="#1D1D1B"/>
<rect x="308.003" y="99.9998" width="50.9436" height="65.1852" fill="#1D1D1B"/>
<rect x="496.43" y="99.9998" width="50.9436" height="65.1852" fill="#1D1D1B"/>
<path d="M389.369 192.965L310.5 329.57L231.631 192.965L389.369 192.965Z" fill="#1D1D1B" stroke="white" stroke-width="5.43"/>
<path d="M318.765 255.965H302.411L299.686 213.667H321.289L318.765 255.965ZM318.058 278.981C315.972 281.068 313.482 282.111 310.588 282.111C307.694 282.111 305.17 281.068 303.017 278.981C300.931 276.828 299.887 274.304 299.887 271.41C299.887 268.449 300.931 265.925 303.017 263.839C305.17 261.685 307.694 260.608 310.588 260.608C313.482 260.608 315.972 261.685 318.058 263.839C320.212 265.925 321.289 268.449 321.289 271.41C321.289 274.304 320.212 276.828 318.058 278.981Z" fill="white"/>
<path d="M1270.79 402.501L1214 342L461.952 342L409.333 396.049L409.333 484.035L409.333 624.741L409.333 815.136L409.333 910.501L1270.79 910.501L1270.79 402.501Z" stroke="white" stroke-width="5.4321"/>
<path d="M409.498 396.501H265.998L160.498 477.001" stroke="white" stroke-width="5.34"/>
<path d="M552.001 501.001H452.001V426.001L477.001 401H552.001V501.001Z" stroke="white" stroke-width="5.34"/>
<path d="M682.997 501H582.997V426L607.997 401H682.997V501Z" stroke="white" stroke-width="5.34"/>
<path d="M813.999 501H713.999V426L738.999 401H813.999V501Z" stroke="white" stroke-width="5.34"/>
<path d="M945 501H845V426L870 401H945V501Z" stroke="white" stroke-width="5.34"/>
<path d="M945 629H845V554L870 529H945V629Z" stroke="white" stroke-width="5.34"/>
<path d="M813.999 629H713.999V554L738.999 529H813.999V629Z" stroke="white" stroke-width="5.34"/>
<path d="M682.997 629.001H582.997V554.001L607.997 529.001H682.997V629.001Z" stroke="white" stroke-width="5.34"/>
<path d="M552.001 629.001H452.001V554.001L477.001 529.001H552.001V629.001Z" stroke="white" stroke-width="5.34"/>
<path d="M515.666 480H510.066V431.91H505.306V480H499.706V450.39C496.393 450.39 493.546 449.224 491.166 446.89C488.833 444.51 487.666 441.664 487.666 438.35C487.666 435.037 488.833 432.214 491.166 429.88C493.546 427.5 496.393 426.31 499.706 426.31H515.666V480Z" fill="white"/>
<path d="M638.231 455.641H626.891L625.001 426.311H639.981L638.231 455.641ZM637.741 471.601C636.295 473.047 634.568 473.771 632.561 473.771C630.555 473.771 628.805 473.047 627.311 471.601C625.865 470.107 625.141 468.357 625.141 466.351C625.141 464.297 625.865 462.547 627.311 461.101C628.805 459.607 630.555 458.861 632.561 458.861C634.568 458.861 636.295 459.607 637.741 461.101C639.235 462.547 639.981 464.297 639.981 466.351C639.981 468.357 639.235 470.107 637.741 471.601Z" fill="white"/>
<path d="M779.253 449.48C779.253 451.3 778.786 453.027 777.853 454.66C776.92 456.247 775.636 457.507 774.003 458.44C777.503 460.167 779.253 463.037 779.253 467.05C779.253 470.643 777.736 473.467 774.703 475.52C771.716 477.62 767.89 478.67 763.223 478.67C756.83 478.67 751.37 476.803 746.843 473.07L751.673 465.23C753.12 466.49 754.916 467.633 757.063 468.66C759.21 469.64 761.263 470.13 763.223 470.13C765.883 470.13 767.213 469.5 767.213 468.24C767.213 467.4 766.56 466.747 765.253 466.28C763.946 465.813 762.336 465.393 760.423 465.02C758.556 464.647 756.666 464.157 754.753 463.55C752.886 462.897 751.3 461.777 749.993 460.19C748.686 458.557 748.033 456.457 748.033 453.89C748.033 451.883 748.616 450.157 749.783 448.71C750.996 447.217 752.28 446.12 753.633 445.42C749.9 443.693 748.033 440.66 748.033 436.32C748.033 433.24 749.48 430.697 752.373 428.69C755.266 426.637 758.836 425.61 763.083 425.61C769.336 425.61 774.213 427.127 777.713 430.16L773.163 437.51C770.363 435.27 767.213 434.15 763.713 434.15C761.286 434.15 760.073 434.78 760.073 436.04C760.073 436.74 760.726 437.3 762.033 437.72C763.34 438.093 764.926 438.443 766.793 438.77C768.706 439.097 770.596 439.563 772.463 440.17C774.376 440.777 775.986 441.873 777.293 443.46C778.6 445 779.253 447.007 779.253 449.48ZM766.863 452.14C766.863 450.18 765.603 448.943 763.083 448.43C761.076 448.803 760.073 449.923 760.073 451.79C760.073 453.797 761.543 455.057 764.483 455.57C766.07 454.917 766.863 453.773 766.863 452.14Z" fill="white"/>
<path d="M883.409 582.31H874.169V566L869.269 570.83L864.089 565.37L875.499 554.31H883.409V582.31ZM925.969 596.03H922.679V601H913.509V596.03H899.719V589.94L909.729 573H922.679V588.89H925.969V596.03ZM913.509 588.89V580.63L908.749 588.89H913.509ZM912.529 554.31L882.639 601H875.849L905.669 554.31H912.529Z" fill="white"/>
<path d="M656.149 601.001H640.609L638.439 598.761C634.846 600.814 630.972 601.841 626.819 601.841C622.059 601.841 618.139 600.628 615.059 598.201C612.026 595.774 610.509 592.298 610.509 587.771C610.509 582.171 613.776 577.808 620.309 574.681C618.582 571.228 617.719 568.054 617.719 565.161C617.719 561.894 619.096 559.164 621.849 556.971C624.649 554.731 628.242 553.611 632.629 553.611C636.409 553.611 639.676 554.591 642.429 556.551C645.182 558.464 646.559 561.008 646.559 564.181C646.559 567.401 645.579 569.921 643.619 571.741C641.706 573.561 638.999 575.218 635.499 576.711C636.479 578.111 637.366 579.254 638.159 580.141L640.679 583.361C642.219 580.934 643.362 578.461 644.109 575.941L653.839 580.561C651.832 584.714 649.616 588.238 647.189 591.131C649.476 593.698 652.462 596.988 656.149 601.001ZM628.709 592.181C629.829 592.181 630.926 591.948 631.999 591.481C630.552 589.801 629.386 588.378 628.499 587.211C627.379 585.811 626.236 584.271 625.069 582.591C624.136 583.758 623.669 585.064 623.669 586.511C623.669 588.144 624.159 589.498 625.139 590.571C626.119 591.644 627.309 592.181 628.709 592.181ZM630.039 565.511C630.039 566.818 630.482 568.358 631.369 570.131C634.449 568.638 635.989 566.911 635.989 564.951C635.989 564.204 635.732 563.598 635.219 563.131C634.706 562.618 634.052 562.361 633.259 562.361C632.326 562.361 631.556 562.664 630.949 563.271C630.342 563.831 630.039 564.578 630.039 565.511Z" fill="white"/>
<path d="M519.256 601.001H506.656V578.111H496.366V601.001H483.766V578.111H478.166V567.191H524.856V578.111H519.256V601.001Z" fill="white"/>
<path d="M552.001 757.001H452.001V682.001L477.001 657.001H552.001V757.001Z" stroke="white" stroke-width="5.34"/>
<path d="M486.854 693.441C486.854 696.754 485.687 699.531 483.354 701.771C481.067 704.011 478.034 705.131 474.254 705.131C470.52 705.131 467.51 704.011 465.224 701.771C462.937 699.531 461.794 696.754 461.794 693.441C461.794 690.081 462.937 687.281 465.224 685.041C467.51 682.754 470.52 681.611 474.254 681.611C478.034 681.611 481.067 682.754 483.354 685.041C485.687 687.281 486.854 690.081 486.854 693.441ZM506.244 682.311L476.354 729.001H469.564L499.384 682.311H506.244ZM513.874 718.151C513.874 721.464 512.707 724.241 510.374 726.481C508.087 728.721 505.077 729.841 501.344 729.841C497.61 729.841 494.6 728.721 492.314 726.481C490.027 724.241 488.884 721.464 488.884 718.151C488.884 714.791 490.027 711.991 492.314 709.751C494.6 707.464 497.61 706.321 501.344 706.321C505.077 706.321 508.087 707.464 510.374 709.751C512.707 711.991 513.874 714.791 513.874 718.151ZM478.314 693.441C478.314 691.668 477.94 690.361 477.194 689.521C476.447 688.634 475.467 688.191 474.254 688.191C471.64 688.191 470.334 689.941 470.334 693.441C470.334 695.168 470.684 696.451 471.384 697.291C472.13 698.131 473.087 698.551 474.254 698.551C475.467 698.551 476.447 698.131 477.194 697.291C477.94 696.451 478.314 695.168 478.314 693.441ZM505.404 718.151C505.404 716.378 505.03 715.071 504.284 714.231C503.537 713.344 502.557 712.901 501.344 712.901C498.684 712.901 497.354 714.651 497.354 718.151C497.354 721.558 498.684 723.261 501.344 723.261C502.557 723.261 503.537 722.841 504.284 722.001C505.03 721.161 505.404 719.878 505.404 718.151ZM540.194 718.151C540.194 721.464 539.027 724.241 536.694 726.481C534.407 728.721 531.397 729.841 527.664 729.841C523.93 729.841 520.92 728.721 518.634 726.481C516.347 724.241 515.204 721.464 515.204 718.151C515.204 714.791 516.347 711.991 518.634 709.751C520.92 707.464 523.93 706.321 527.664 706.321C531.397 706.321 534.407 707.464 536.694 709.751C539.027 711.991 540.194 714.791 540.194 718.151ZM531.724 718.151C531.724 716.378 531.35 715.071 530.604 714.231C529.857 713.344 528.877 712.901 527.664 712.901C525.004 712.901 523.674 714.651 523.674 718.151C523.674 721.558 525.004 723.261 527.664 723.261C528.877 723.261 529.857 722.841 530.604 722.001C531.35 721.161 531.724 719.878 531.724 718.151Z" fill="white"/>
<path d="M552.001 885.001H452.001V810.001L477.001 785.001H552.001V885.001Z" stroke="white" stroke-width="5.34"/>
<path d="M500.448 822.631L512.348 836.351L499.818 850.981H519.348V863.301H482.668V850.981L494.918 836.421L482.738 822.561V810.311H519.348V822.631H500.448Z" fill="white"/>
<path d="M683.002 757.002H583.002V682.001L608.002 657.001H683.002V757.002Z" stroke="white" stroke-width="5.34"/>
<path d="M626.896 721.281V733.881H614.296V687.191H626.896V705.951C626.896 709.125 628.529 710.711 631.796 710.711C633.756 710.711 635.529 709.825 637.116 708.051V687.191H649.716V708.541C649.716 709.241 649.949 709.778 650.416 710.151C650.883 710.525 651.443 710.711 652.096 710.711C652.563 710.711 653.006 710.641 653.426 710.501L654.196 721.141C652.656 721.608 650.836 721.841 648.736 721.841C643.089 721.841 639.449 719.811 637.816 715.751C637.069 717.618 635.973 719.111 634.526 720.231C633.126 721.305 631.493 721.841 629.626 721.841C628.553 721.841 627.643 721.655 626.896 721.281Z" fill="white"/>
<path d="M683.002 885.002H583.002V810.002L608.002 785.002H683.002V885.002Z" stroke="white" stroke-width="5.34"/>
<path d="M625.158 850.492H618.368L622.638 843.702H616.688V836.352H627.328L630.828 830.892H616.688V823.542H635.518L639.788 816.822H646.648L642.378 823.542H648.328V830.892H637.688L634.188 836.352H648.328V843.702H629.498L625.158 850.492Z" fill="white"/>
<path d="M814.006 757.001H714.006V682.001L739.006 657H814.006V757.001Z" stroke="white" stroke-width="5.34"/>
<path d="M739.156 716.681H746.366C740.766 712.341 737.966 707.511 737.966 702.191C737.966 695.751 740.369 690.711 745.176 687.071C749.983 683.384 756.096 681.541 763.516 681.541C770.983 681.541 777.096 683.384 781.856 687.071C786.663 690.711 789.066 695.751 789.066 702.191C789.066 707.511 786.289 712.341 780.736 716.681H787.876V729.001H767.016V716.681C769.583 715.887 771.496 714.441 772.756 712.341C774.063 710.194 774.716 707.931 774.716 705.551C774.716 704.291 774.529 703.054 774.156 701.841C773.783 700.581 773.199 699.344 772.406 698.131C771.613 696.917 770.446 695.937 768.906 695.191C767.366 694.444 765.569 694.071 763.516 694.071C761.463 694.071 759.666 694.444 758.126 695.191C756.586 695.937 755.419 696.917 754.626 698.131C753.833 699.344 753.249 700.581 752.876 701.841C752.503 703.054 752.316 704.291 752.316 705.551C752.316 707.931 752.946 710.194 754.206 712.341C755.513 714.441 757.449 715.887 760.016 716.681V729.001H739.156V716.681Z" fill="white"/>
<path d="M814.004 885.001H714.004V810.001L739.004 785.001H814.004V885.001Z" stroke="white" stroke-width="5.34"/>
<path d="M789.613 857.001H737.393L754.613 810.311H772.393L789.613 857.001ZM769.803 844.681L763.503 824.171L757.203 844.681H769.803Z" fill="white"/>
<path d="M945.001 757.001H845.001V682.001L870.001 657.001H945.001V757.001Z" stroke="white" stroke-width="5.34"/>
<path d="M911.329 720.601L879.689 708.001V698.901L911.329 686.301V695.051L887.949 703.521L911.329 711.851V720.601ZM911.329 729.001H879.689V721.651H911.329V729.001Z" fill="white"/>
<path d="M945 885.001H845V810.001L870 785.001H945V885.001Z" stroke="white" stroke-width="5.34"/>
<path d="M916.503 803.241L912.863 814.231C915.616 816.378 917.856 819.341 919.583 823.121L908.243 828.441L903.133 843.981C905.233 842.675 906.656 840.878 907.403 838.591L919.583 844.191C917.95 847.971 915.406 851.191 911.953 853.851C908.546 856.465 904.09 857.795 898.583 857.841L896.553 864.001H889.903L892.143 857.211C891.303 857.071 890.206 856.768 888.853 856.301L886.333 864.001H879.683L883.113 853.571C879.846 851.425 877.28 848.648 875.413 845.241C873.593 841.788 872.683 837.938 872.683 833.691C872.683 826.691 875.016 820.975 879.683 816.541C884.396 812.108 890.346 809.798 897.533 809.611L899.633 803.241H906.283L903.973 810.101C905.466 810.428 906.563 810.755 907.263 811.081L909.853 803.241H916.503ZM892.843 844.051C893.776 844.565 894.85 844.938 896.063 845.171L903.203 823.471C902.223 822.865 901.173 822.445 900.053 822.211L892.843 844.051ZM887.033 833.691C887.033 835.465 887.36 837.121 888.013 838.661L893.053 823.261C891.186 824.195 889.716 825.595 888.643 827.461C887.57 829.328 887.033 831.405 887.033 833.691Z" fill="white"/>
<path d="M775.801 549.64C777.014 550.854 777.621 552.324 777.621 554.05C777.621 555.777 777.014 557.247 775.801 558.46C774.588 559.674 773.094 560.28 771.321 560.28C769.594 560.28 768.124 559.674 766.911 558.46C765.698 557.247 765.091 555.777 765.091 554.05C765.091 552.324 765.698 550.854 766.911 549.64C768.124 548.427 769.594 547.82 771.321 547.82C773.094 547.82 774.588 548.427 775.801 549.64ZM760.611 549.64C761.824 550.854 762.431 552.324 762.431 554.05C762.431 555.777 761.824 557.247 760.611 558.46C759.398 559.674 757.928 560.28 756.201 560.28C754.474 560.28 753.004 559.674 751.791 558.46C750.578 557.247 749.971 555.777 749.971 554.05C749.971 552.324 750.578 550.854 751.791 549.64C753.004 548.427 754.474 547.82 756.201 547.82C757.928 547.82 759.398 548.427 760.611 549.64ZM780.771 604.38C776.898 608.02 771.158 609.84 763.551 609.84C755.944 609.84 750.181 608.02 746.261 604.38C742.388 600.694 740.451 595.84 740.451 589.82V562.31H754.801V589.33C754.801 591.664 755.548 593.6 757.041 595.14C758.581 596.634 760.751 597.38 763.551 597.38C766.304 597.38 768.428 596.634 769.921 595.14C771.461 593.6 772.231 591.664 772.231 589.33V562.31H786.581V589.75C786.581 595.817 784.644 600.694 780.771 604.38Z" fill="white"/>
<path d="M902.242 443.87C903.502 445.597 904.132 447.813 904.132 450.52C904.132 452.247 903.712 453.787 902.872 455.14C902.079 456.493 901.192 457.497 900.212 458.15C899.232 458.803 898.322 459.433 897.482 460.04C896.689 460.647 896.292 461.183 896.292 461.65C896.292 462.63 897.202 463.12 899.022 463.12C901.215 463.12 903.245 462.14 905.112 460.18L912.952 469.21C910.992 471.31 908.612 472.897 905.812 473.97C903.059 475.043 900.259 475.58 897.412 475.58C892.699 475.58 888.942 474.553 886.142 472.5C883.389 470.493 882.012 467.763 882.012 464.31C882.012 462.49 882.339 460.857 882.992 459.41C883.692 457.963 884.532 456.82 885.512 455.98C886.492 455.14 887.472 454.37 888.452 453.67C889.432 452.923 890.249 452.177 890.902 451.43C891.602 450.637 891.952 449.82 891.952 448.98C891.952 447.86 891.695 446.997 891.182 446.39L902.242 443.87ZM891.672 429.59C893.165 428.097 894.939 427.35 896.992 427.35C899.045 427.35 900.795 428.097 902.242 429.59C903.735 431.037 904.482 432.787 904.482 434.84C904.482 436.893 903.735 438.667 902.242 440.16C900.795 441.607 899.045 442.33 896.992 442.33C894.939 442.33 893.165 441.607 891.672 440.16C890.225 438.667 889.502 436.893 889.502 434.84C889.502 432.787 890.225 431.037 891.672 429.59Z" fill="white"/>
<rect x="80.5049" y="476.501" width="80" height="80.0001" fill="#1D1D1B" stroke="white" stroke-width="5"/>
<path d="M115.958 525.321C114.698 523.595 114.068 521.378 114.068 518.671C114.068 516.945 114.465 515.405 115.258 514.051C116.098 512.698 117.008 511.695 117.988 511.041C118.968 510.388 119.855 509.758 120.648 509.151C121.488 508.545 121.908 508.008 121.908 507.541C121.908 506.561 120.998 506.071 119.178 506.071C116.985 506.071 114.955 507.051 113.088 509.011L105.248 499.981C107.208 497.881 109.565 496.295 112.318 495.221C115.118 494.148 117.941 493.611 120.788 493.611C125.501 493.611 129.235 494.638 131.988 496.691C134.788 498.698 136.188 501.428 136.188 504.881C136.188 506.701 135.838 508.335 135.138 509.781C134.485 511.228 133.668 512.371 132.688 513.211C131.708 514.051 130.728 514.845 129.748 515.591C128.768 516.291 127.928 517.038 127.228 517.831C126.575 518.578 126.248 519.371 126.248 520.211C126.248 521.331 126.505 522.195 127.018 522.801L115.958 525.321ZM126.458 539.601C125.011 541.095 123.261 541.841 121.208 541.841C119.155 541.841 117.381 541.095 115.888 539.601C114.441 538.108 113.718 536.358 113.718 534.351C113.718 532.345 114.441 530.595 115.888 529.101C117.381 527.608 119.155 526.861 121.208 526.861C123.261 526.861 125.011 527.608 126.458 529.101C127.951 530.595 128.698 532.345 128.698 534.351C128.698 536.358 127.951 538.108 126.458 539.601Z" fill="white"/>
<path d="M694.325 78.0002L687.004 121.046L764.279 121.046L756.145 78.0002L694.325 78.0002Z" stroke="white" stroke-width="5.18624"/>
<path d="M1248.93 623.707L1222.92 675.203L1208.23 623.707L1193.55 572.21L1155.02 658.629L1135.27 592.335L1087.59 701.642L1063.03 583.259L1025.46 662.97L1004.75 599.833L985.005 636.137" stroke="#11DF0D" stroke-width="5.34"/>
<path d="M1250 625.877L984.999 625.877L984.999 622.72L984.999 621.668L1250 621.668L1250 625.877Z" fill="#11DF0D"/>
<path d="M1248.93 621.05L1248.93 555.002L985.424 555.002L985.424 623.329L985.424 641.662L985.424 679.002L1046 729.002L1199.58 729.002L1248.93 729.002L1248.93 685.332L1248.93 621.05Z" stroke="white" stroke-width="5.34"/>
<path d="M985.002 827.403V910.001H1271V751.001H1045.52L985.002 827.403Z" stroke="white" stroke-width="5.34"/>
<rect x="1034" y="763" width="234" height="6.00001" fill="white"/>
<rect x="1020" y="779.001" width="248" height="6.00001" fill="white"/>
<rect x="1006" y="795.001" width="262" height="6.00001" fill="white"/>
<rect x="995.005" y="811.001" width="273" height="6.00001" fill="white"/>
<rect x="987" y="827.001" width="281" height="6.00001" fill="white"/>
<rect x="987" y="843" width="281" height="6.00001" fill="white"/>
<rect x="987" y="859.001" width="281" height="6.00001" fill="white"/>
<rect x="987" y="875.001" width="281" height="6.00001" fill="white"/>
<rect x="987" y="891.001" width="281" height="6.00001" fill="white"/>
<path d="M855.003 -0.999512L855.003 44.4795L738.003 59.761L738.003 77.5006" stroke="white" stroke-width="1.73"/>
<path d="M843.002 -1.00024L843.002 38.4814L727.002 53.7919L727.002 76.9998" stroke="white" stroke-width="1.73"/>
<path d="M831.002 -0.999512L831.002 32.9473L716.002 48.3908L716.002 77.5006" stroke="white" stroke-width="1.73"/>
</g>
<defs>
<clipPath id="clip0_294_20452">
<rect width="1440" height="1024" fill="white" transform="translate(1440 1024) rotate(180)"/>
</clipPath>
</defs>
</svg>
